<svg width="56" height="56" viewBox="0 0 56 56" fill="none" xmlns="http://www.w3.org/2000/svg">
<ellipse rx="24.4038" ry="22.276" transform="matrix(-1 0 0 1 24.5689 29.1137)" fill="#FED53B"/>
<path fill-rule="evenodd" clip-rule="evenodd" d="M55.1702 29.4334C55.1702 40.6744 45.1016 47.3395 35.4278 47.3395H34.4407V50.9207L41.1531 49.329C41.6467 49.1301 42.2389 49.528 42.3377 50.0254C42.5351 50.5228 42.1402 51.1196 41.6467 51.2191L37.9943 52.1144L42.6338 53.3082C43.1274 53.4076 43.4235 54.0045 43.3248 54.5019C43.2261 54.9993 42.7325 55.2977 42.3377 55.2977H42.1402L33.7497 53.2087L24.8657 55.2977H24.6683C24.1747 55.2977 23.7798 54.9993 23.6811 54.5019C23.4837 54.0045 23.8786 53.4076 24.3721 53.3082L29.5051 52.015L26.2476 51.2191C25.7541 51.1196 25.458 50.5228 25.5567 50.0254C25.6554 49.528 26.2476 49.2296 26.7412 49.329L32.4665 50.8212V47.1405C23.385 46.0463 16.87 39.7791 13.7112 28.7371C11.1447 19.5851 11.2435 4.16593 13.4151 1.28106C13.81 0.684195 14.3035 0.584717 14.6984 0.584717C15.6855 0.584717 16.5739 0.98263 17.2649 1.77846C17.8571 2.27585 18.1533 2.97219 18.4494 3.8675C21.6745 5.34484 26.9316 3.79935 31.6341 2.4169L31.7755 2.37532L31.8061 2.36624C36.8274 0.877918 41.1571 -0.405422 43.1274 1.87793C45.2003 4.46437 43.1274 8.94089 40.857 13.8153C38.9815 17.8939 36.9085 22.4699 37.8956 24.8574C38.1918 25.6532 38.784 26.1506 39.7712 26.4491C41.0544 26.9464 42.1402 26.4491 43.8183 25.4543C45.3977 24.559 47.372 23.4647 50.2346 23.4647C53.3934 23.4647 55.1702 26.5485 55.1702 29.4334ZM18.5271 6.40603C18.823 9.21711 18.6257 12.8314 18.3299 16.546C17.9354 21.1642 17.6396 26.3848 18.823 27.69C18.9216 27.7903 19.1188 27.8907 19.316 27.8907C20.904 27.8907 21.8726 27.2602 22.8923 26.5964L23.0634 26.4852C24.1481 25.682 25.3315 24.8789 27.2052 24.8789C30.6072 24.8789 32.8595 27.9025 35.001 30.7772L35.0944 30.9026L35.9819 32.1074C43.8711 31.2038 49.3935 31.7058 52.4505 33.4125L52.493 33.1545L52.493 33.1544C52.6751 32.0486 52.845 31.0169 52.845 29.8987C52.845 28.3927 52.0561 25.8828 49.8866 25.8828C47.5198 25.8828 45.942 26.7864 44.4628 27.7903C42.7863 28.7943 41.0112 29.7983 38.7431 28.9951C37.2639 28.4931 36.1791 27.5896 35.6861 26.2844C34.3055 22.9713 36.475 18.1523 38.6445 13.4337L38.8141 13.06C40.5475 9.24105 42.4498 5.04996 41.2085 3.49455C40.1237 2.1894 35.9819 3.39415 31.9387 4.5989L31.5788 4.70255C27.1379 5.98175 22.2716 7.38351 18.5271 6.40603ZM51.2968 34.6991C49.9831 35.4738 47.3558 36.539 43.0106 36.539C40.6864 36.539 38.9685 35.377 37.3517 33.6339C43.92 33.1497 48.7705 33.4402 51.2968 34.6991ZM15.2749 2.14794C13.999 4.04304 13.2138 18.2064 15.962 27.7816C19.2009 39.252 25.8751 45.037 35.592 45.1367C43.3458 45.1367 48.6459 41.3465 51.296 36.5589C49.6274 37.3569 47.0755 38.1548 43.444 38.1548C39.0272 38.1548 36.3772 34.5641 34.0216 31.3723C32.0586 28.6793 30.1937 26.1858 27.74 26.1858C26.464 26.1858 25.6788 26.6845 24.6973 27.3827C23.5195 28.2803 22.1454 29.178 19.888 29.178C19.1028 29.178 18.4157 28.8788 17.925 28.2803C16.2011 26.4312 16.5331 21.6383 16.9149 16.1253C16.9244 15.9883 16.9339 15.8508 16.9435 15.7129C16.953 15.584 16.9627 15.4548 16.9723 15.3252C17.3587 10.1373 17.7862 4.39825 16.1583 2.64665C15.962 2.34743 15.6675 2.14794 15.2749 2.14794Z" fill="black"/>
</svg>
