<svg width="101" height="73" viewBox="0 0 101 73" fill="none" xmlns="http://www.w3.org/2000/svg">
<path d="M14.403 62.4919H15.5121V63.7214H14.403V62.4919ZM14.403 65.4056H15.5121V72.1144H14.403V65.4056Z" fill="#034EA2"/>
<path d="M20.043 65.2441C20.8851 65.2441 21.5131 65.6585 21.767 66.3666C22.1547 65.6184 22.7829 65.2441 23.6247 65.2441C24.7338 65.2441 25.4021 65.9392 25.4021 67.0483V72.1137H24.2529V67.8236C24.2529 66.6744 24.0524 66.1263 23.1435 66.1263C22.2081 66.1263 21.8339 66.8348 21.8339 68.238V72.1137H20.6713V67.8236C20.6713 66.6744 20.4708 66.1263 19.5618 66.1263C18.6131 66.1263 18.2522 66.8348 18.2522 68.238V72.1137H17.103V66.4605C17.103 66.1397 17.0763 65.7788 17.0362 65.4049H18.2124L18.2659 66.1798C18.7334 65.5382 19.2811 65.2441 20.043 65.2441Z" fill="#034EA2"/>
<path d="M30.2156 62.4915H31.4717V71.0048H34.7593V72.1139H30.2153V62.4915H30.2156Z" fill="#034EA2"/>
<path d="M35.6292 67.1554V67.0221C35.6292 65.8595 36.4442 65.2446 38.0081 65.2446C39.572 65.2446 40.2668 65.8595 40.2668 67.1959V70.323C40.2668 70.9379 40.3069 71.5394 40.3871 72.1138H39.2379L39.1577 71.2718C38.7032 71.8599 38.0749 72.1807 37.4203 72.1807C36.3112 72.1807 35.4958 71.379 35.4958 70.1225C35.4958 68.5853 36.4983 67.797 38.476 67.797H39.1172V67.4629C39.1172 66.5008 38.9167 66.073 38.088 66.073C37.2729 66.073 36.8586 66.4206 36.8586 67.0889V67.1554H35.6292ZM36.6447 70.0156C36.6447 70.6706 37.0858 71.1648 37.7007 71.1648C38.5695 71.1648 39.1306 70.4834 39.1306 69.1203V68.5987C37.3932 68.5987 36.6447 68.9195 36.6447 70.0156Z" fill="#034EA2"/>
<path d="M45.3195 67.8236C45.3195 66.6744 45.119 66.1263 44.2101 66.1263C43.2614 66.1263 42.9005 66.8348 42.9005 68.238V72.1137H41.7513V66.4605C41.7513 66.1397 41.7245 65.7788 41.6844 65.4049H42.8607L42.9142 66.1798C43.3817 65.5382 43.9297 65.2441 44.6916 65.2441C45.8007 65.2441 46.4824 65.9392 46.4824 67.0483V72.1137H45.3199V67.8236H45.3195Z" fill="#034EA2"/>
<path d="M51.5482 62.4915H52.7111V70.9109C52.7111 71.3386 52.7111 71.7393 52.7646 72.1005H51.6284L51.5619 71.4456C51.1475 71.9936 50.6396 72.2606 49.9582 72.2606C48.4076 72.2606 47.753 71.1381 47.753 68.8394C47.753 66.4206 48.4213 65.231 49.9448 65.231C50.6265 65.231 51.1609 65.5251 51.5482 66.1399V62.4915ZM48.9289 68.7328C48.9289 70.5637 49.2096 71.4055 50.2653 71.4055C51.201 71.4055 51.5482 70.55 51.5482 68.7729C51.5482 67.0489 51.201 66.2068 50.1985 66.2068C49.3299 66.2068 48.9289 67.0355 48.9289 68.7328Z" fill="#034EA2"/>
<path d="M63.2037 64.8036C63.2037 66.0731 62.629 66.8881 61.5867 67.1023C62.8031 67.2761 63.4844 68.1045 63.4844 69.4141C63.4844 71.3256 62.5354 72.1139 60.531 72.1139H57.6174V62.4915H60.3569C62.2684 62.4915 63.2037 63.2263 63.2037 64.8036ZM60.103 66.5008C61.3858 66.5008 61.961 66.0464 61.961 64.8834C61.961 63.8412 61.3995 63.4402 60.1701 63.4402H58.8067V66.5008H60.103ZM60.2366 71.0182C61.6268 71.0182 62.2684 70.5239 62.2684 69.3075C62.2684 68.1312 61.6398 67.5835 60.3168 67.5835H58.8064V71.0182H60.2366Z" fill="#034EA2"/>
<path d="M67.2011 72.2741C65.3167 72.2741 64.6885 71.1382 64.6885 68.7058C64.6885 66.3536 65.41 65.2578 67.2011 65.2578C68.8984 65.2578 69.6068 66.14 69.6068 67.984V69.0266H65.8781V69.4139C65.8781 70.6971 66.2521 71.2986 67.2011 71.2986C67.8962 71.2986 68.3503 70.8442 68.4576 70.0154H69.6068C69.54 71.4323 68.6444 72.2741 67.2011 72.2741ZM68.4706 68.1581V67.5833C68.4706 66.5674 68.0429 66.0461 67.2409 66.0461C66.3186 66.0461 65.9045 66.7278 65.8778 68.1578H68.4706V68.1581Z" fill="#034EA2"/>
<path d="M72.026 66.2732C72.2666 65.6052 72.8544 65.231 73.7099 65.231C73.7767 65.231 73.8436 65.2443 73.9241 65.2443V66.4206C73.8172 66.4206 73.7233 66.4072 73.63 66.4072C72.4538 66.4072 72.026 66.8881 72.026 68.051V72.1139H70.8768V66.5275C70.8768 66.434 70.837 66.0597 70.7702 65.3917H71.9194L72.026 66.2732Z" fill="#034EA2"/>
<path d="M74.7129 72.1139V62.4915H75.8621V72.1139H74.7129Z" fill="#034EA2"/>
<path d="M77.4398 62.4915H78.5489V63.7209H77.4398V62.4915ZM77.4398 65.4051H78.5489V72.1139H77.4398V65.4051Z" fill="#034EA2"/>
<path d="M83.7085 67.8236C83.7085 66.6744 83.5079 66.1263 82.5993 66.1263C81.6503 66.1263 81.2894 66.8348 81.2894 68.238V72.1137H80.1402V66.4605C80.1402 66.1397 80.1134 65.7788 80.0737 65.4049H81.2496L81.3031 66.1798C81.7709 65.5382 82.319 65.2441 83.0805 65.2441C84.1897 65.2441 84.8714 65.9392 84.8714 67.0483V72.1137H83.7088V67.8236H83.7085Z" fill="#034EA2"/>
<path d="M92.45 42.2629C94.5215 43.8339 97.7633 42.4972 99.9688 43.7002C100.571 44.302 99.8017 44.9032 99.5681 45.4716C97.9638 47.0753 96.1923 48.5791 93.9537 48.8468C92.1158 49.9158 90.3113 48.4792 88.2728 48.8468C86.2344 48.8134 84.1291 48.9467 82.2577 48.4454C78.6824 49.482 74.3713 48.0778 70.8625 49.3149C66.5183 50.4845 61.5722 50.2169 57.3951 51.7206C51.7813 52.5227 47.136 55.6301 42.1569 57.9028C41.288 58.2036 40.1853 58.1033 39.4167 57.6692C38.3807 56.6667 37.5787 55.3965 38.1468 53.8928C39.684 53.0239 40.1518 50.7515 42.09 50.6175C46.4343 49.7821 50.3107 47.8777 54.5212 46.6747L70.6951 44.1012C74.3716 42.7642 92.45 42.2629 92.45 42.2629Z" fill="#FFCB05"/>
<path d="M9.524 23.1316C9.524 23.1316 19.7045 30.1304 21.0252 30.0883C22.9958 30.0255 32.2533 22.8034 32.2533 22.8034C33.6117 21.9222 35.3902 21.0724 36.2577 21.705C36.7275 22.0475 36.5641 23.2669 36.0451 24.0017L27.0703 36.7029L36.8381 53.115C37.0931 53.5431 37.196 54.1059 36.8381 54.3922C36.0024 55.0613 35.0092 54.56 34.1287 53.9511L21.8616 45.4649L13.1691 54.4998C11.8839 55.8359 10.7775 57.8325 9.42942 57.4342C7.97578 57.0041 11.4104 46.7381 14.3959 36.1836C9.01104 30.3065 5.63926 25.1844 5.63926 25.1844C4.82121 24.1568 4.26648 22.4214 5.29439 21.8343C6.202 21.316 8.04763 22.2383 9.524 23.1316Z" fill="#FFCB05"/>
<path d="M7.85313 22.1286C7.85313 22.1286 18.0337 29.1275 19.3543 29.0854C21.3249 29.0226 30.5824 21.8005 30.5824 21.8005C31.9408 20.9193 33.7193 20.0695 34.5868 20.702C35.0567 21.0446 34.8107 22.0307 34.3743 22.6646L25.3994 35.7L35.1673 52.1125C35.4222 52.5405 35.5252 53.1033 35.1673 53.3897C34.3315 54.0587 33.3383 53.5574 32.4578 52.9485L20.1907 44.4623L11.4983 53.4973C10.213 54.8333 9.1066 56.8299 7.75856 56.4316C6.30491 56.0015 9.73952 45.7355 12.725 35.181C7.34017 29.3039 3.96839 24.1818 3.96839 24.1818C3.15034 23.1542 2.59562 21.4188 3.62353 20.8317C4.53113 20.3127 6.37676 21.2354 7.85313 22.1286Z" fill="#034EA2"/>
<path d="M15.351 21.7164C14.695 19.0861 15.6551 16.5821 17.4953 16.1233C19.3353 15.6642 21.3587 17.4249 22.0143 20.0552C22.6703 22.6855 21.7102 25.1894 19.87 25.6482C18.0297 26.107 16.0066 24.3466 15.351 21.7164Z" fill="#034EA2"/>
<path d="M18.1023 3.8012L17.3852 6.15309L19.3434 4.66837L21.3615 6.08392L20.5628 3.75809L22.5211 2.28272L20.0606 2.3255L19.2619 0L18.5451 2.35223L16.094 2.395L18.1023 3.8012Z" fill="#034EA2"/>
<path d="M33.4473 16.3614L32.7305 18.7136L34.6884 17.2289L36.7065 18.6441L35.9078 16.3186L37.8661 14.8433L35.4056 14.886L34.6069 12.5605L33.8898 14.9124L31.439 14.9552L33.4473 16.3614Z" fill="#034EA2"/>
<path d="M2.2024 16.3614L1.4856 18.7136L3.44351 17.2289L5.46157 18.6441L4.6629 16.3186L6.62114 14.8433L4.16064 14.886L3.36197 12.5605L2.64518 14.9124L0.194031 14.9552L2.2024 16.3614Z" fill="#034EA2"/>
<path d="M28.2678 8.50871L27.551 10.8606L29.5089 9.37589L31.527 10.7911L30.7283 8.46561L32.6865 6.99024L30.226 7.03301L29.4274 4.70752L28.7106 7.05941L26.2594 7.10252L28.2678 8.50871Z" fill="#034EA2"/>
<path d="M8.05031 8.50871L7.33352 10.8606L9.29142 9.37589L11.3095 10.7911L10.5108 8.46561L12.4691 6.99024L10.0086 7.03301L9.20989 4.70752L8.49309 7.05941L6.04195 7.10252L8.05031 8.50871Z" fill="#FFCB05"/>
<path d="M56.1032 32.3307C56.3916 31.9939 56.536 31.633 56.536 31.248C56.5119 30.5021 56.1751 30.0209 55.4533 29.7563C54.2746 29.2991 52.6867 29.0588 50.714 29.0588C49.9922 29.0588 49.2227 29.131 48.4046 29.2513C47.5625 29.3716 46.7207 29.516 45.8064 29.7566C45.5177 29.5404 45.3132 29.5745 44.9767 29.5745C43.8699 29.5985 43.2082 30.0456 43.2082 31.2483C43.2323 31.513 43.2564 31.922 43.3285 32.451C43.4007 33.0044 43.4488 33.3894 43.4488 33.6781C43.4248 34.7123 43.3767 36.3003 43.2082 38.3932C43.0639 40.4865 42.9917 42.0738 42.9917 43.1081C42.9917 45.6581 43.4248 47.2942 44.2669 48.0404C45.0605 48.7375 46.7207 49.0743 49.2708 49.0743C51.7486 49.0743 53.3607 49.0025 54.1303 48.8585C55.0446 48.666 55.5017 48.1607 55.5017 47.2946C55.5017 46.7412 55.4703 46.3208 55.0853 46.0324C54.7726 45.7681 54.2506 45.6825 53.7938 45.6825C53.6494 45.6825 53.4088 45.7066 53.1201 45.755C52.8073 45.8028 52.5667 45.8269 52.4223 45.8269C51.9171 45.8269 51.1953 45.8269 50.2332 45.8509C49.2467 45.875 48.5012 45.8994 48.02 45.8994C47.1297 45.8753 46.6245 45.8269 46.5523 45.731C46.3598 45.5144 46.2876 44.6482 46.2876 43.1084C46.2876 42.4832 46.3117 41.6895 46.3598 40.7027C48.6211 40.5102 50.281 40.3658 51.3877 40.2459C52.6389 40.1259 53.3737 39.9822 53.999 39.9338C54.9858 39.8138 55.5863 39.4522 55.5863 38.5135C55.5863 38.0327 55.5255 37.5515 55.1889 37.2631C54.8521 36.9496 54.5403 37.0098 54.0825 37.0098C53.6738 37.0098 52.6629 36.9022 51.1709 37.0462C48.5249 37.3105 47.0091 37.4549 46.576 37.4789C46.6482 35.4101 46.6723 33.8706 46.6723 32.836C47.4422 32.6435 48.1637 32.4991 48.8373 32.4029C49.511 32.3307 50.1366 32.2826 50.7137 32.2826C51.9167 32.2826 53.1435 32.451 54.4183 32.7879C54.5868 32.8363 54.7552 32.86 54.9236 32.86C55.4055 32.86 55.8138 32.6675 56.1032 32.3307Z" fill="#034EA2"/>
<path d="M69.4838 47.0208C71.7936 45.9862 72.9241 44.4708 72.9241 42.45C72.9241 40.7662 72.3707 39.491 71.2642 38.5289C70.254 37.6868 68.8826 37.2052 67.1502 37.0609C66.14 36.989 65.1529 36.9649 64.1427 36.9165C63.5656 36.8206 63.1325 36.7 62.8438 36.5071C62.5788 36.3153 62.4344 36.0503 62.4344 35.7616C62.4344 35.1842 62.8919 34.6548 63.8299 34.174C64.7686 33.6928 65.7063 33.4522 66.7168 33.4522C67.1018 33.4762 67.6555 33.5243 68.3767 33.6928C69.1225 33.8612 69.6762 33.9334 70.0371 33.9334C70.5424 33.9334 70.9274 33.7409 71.2402 33.404C71.5286 33.0672 71.6729 32.7066 71.6729 32.3216C71.6489 31.7442 70.9511 31.2389 69.5563 30.8059C68.4251 30.4449 67.4874 30.2769 66.7172 30.2769C64.7689 30.2769 63.0125 30.9262 61.4005 32.1773C59.7891 33.4525 58.9784 34.9947 59.2625 36.5078C59.5131 37.8445 59.6685 38.5285 61.1121 39.1778C62.1948 39.6587 63.3978 39.9237 64.7449 39.9474C66.5013 39.9715 67.6559 40.1159 68.233 40.3324C69.0513 40.6452 69.6218 41.7038 69.6218 42.69C69.5977 43.4118 68.7863 43.6768 67.4874 44.278C66.2363 44.8557 64.9133 45.1441 63.5897 45.1441C62.0023 45.1441 60.9921 44.6633 60.5587 43.7005C60.2219 42.9794 59.7337 42.6068 59.0118 42.6068C58.4825 42.6068 58.0571 42.7869 57.7684 43.1237C57.4549 43.4606 57.3109 43.8455 57.3109 44.3508C57.3109 45.3129 57.7918 46.1547 58.7545 46.9009C59.9091 47.7911 61.473 48.2238 63.4694 48.2238C65.7307 48.1994 67.7274 47.8145 69.4838 47.0208Z" fill="#034EA2"/>
<path d="M87.8096 31.4266C88.1465 31.0898 88.2905 30.7048 88.2905 30.2717C88.2905 29.6462 87.4243 29.1169 85.7404 28.66C84.369 28.2751 83.2936 28.3205 82.4034 28.3205C81.7782 28.3205 81.0734 28.1548 80.3038 28.2269C79.5579 28.2991 78.7158 28.4194 77.8022 28.5638C77.5857 28.4435 77.3207 28.3954 77.0319 28.3954C76.5511 28.3954 76.1658 28.5397 75.8533 28.8525C75.5405 29.1653 75.3965 29.5499 75.3965 30.0071C75.3724 30.3199 75.3724 30.777 75.3724 31.3785C75.3484 32.0041 75.3484 32.4612 75.3484 32.774V46.2217C75.3484 46.7026 75.4927 47.0879 75.7811 47.3763C76.0702 47.6653 76.4331 47.8699 76.8899 47.8699C77.3474 47.8699 77.7541 47.6657 78.115 47.3763C78.4759 47.0635 78.6443 46.6792 78.6443 46.2217V38.8603C80.0632 38.4994 81.05 38.3309 81.6031 38.3309C82.0124 38.3309 82.6377 38.355 83.432 38.4275C84.2741 38.4994 84.7523 38.346 85.161 38.346C85.6185 38.346 85.8507 38.3002 86.1635 38.0118C86.5003 37.675 86.6648 37.3826 86.6648 36.9258C86.6648 35.9874 86.4148 35.4444 85.4046 35.3241C84.3219 35.1797 83.1202 35.2549 81.6522 35.2549C80.8585 35.279 79.8233 35.276 78.6446 35.5647C78.6687 34.482 78.6687 33.183 78.6446 31.6672C79.4142 31.5473 80.112 31.451 80.7135 31.4026C81.3387 31.3304 81.8921 31.3063 82.3733 31.3063C83.8163 31.3063 85.0678 31.4748 86.078 31.7875C86.2945 31.8597 86.4873 31.9078 86.6798 31.9078C87.1359 31.8841 87.4968 31.7394 87.8096 31.4266Z" fill="#034EA2"/>
</svg>
