<svg width="207" height="53" viewBox="0 0 207 53" fill="none" xmlns="http://www.w3.org/2000/svg">
<path d="M78.0251 0.193359H0.194031V52.0804H78.0251V0.193359Z" fill="#034EA2"/>
<path d="M37.4511 11.4985L39.0937 10.3L40.7362 11.4985L40.1108 9.5603L41.779 8.36178H39.723L39.0937 6.3999L38.4648 8.36375L36.4093 8.36178L38.0765 9.5603L37.4511 11.4985Z" fill="#FFF200"/>
<path d="M28.9526 14.2881L30.5946 13.0891L32.2357 14.2881L31.6118 12.3499L33.279 10.6452L31.223 11.1514L30.5936 9.18701L29.9648 11.1528L27.9093 11.1514L29.5765 12.3499L28.9526 14.2881Z" fill="#FFF200"/>
<path d="M24.3759 15.4202L23.7466 17.386L21.6915 17.384L23.3587 18.582L22.7338 20.5203L24.3759 19.3222L26.0184 20.5203L25.3935 18.582L27.0607 17.384H25.0052L24.3759 15.4202Z" fill="#FFF200"/>
<path d="M22.0946 27.81L23.7356 29.009L23.1122 27.0708L24.7794 25.8723H22.7244L22.0946 23.908L21.4657 25.8762L19.4092 25.8723L21.0774 27.0708L20.452 29.009L22.0946 27.81Z" fill="#FFF200"/>
<path d="M25.0052 34.386L24.3759 32.4216L23.7466 34.3884L21.6915 34.386L23.3587 35.585L22.7338 37.5227L24.3759 36.3217L26.0184 37.5227L25.3935 35.585L27.0607 34.386H25.0052Z" fill="#FFF200"/>
<path d="M31.2357 40.6167L30.6063 38.6548L29.978 40.6186L27.9225 40.6167L29.5892 41.8152L28.9648 43.7534L30.6073 42.5549L32.2484 43.7534L31.6245 41.8152L33.2917 40.1105L31.2357 40.6167Z" fill="#FFF200"/>
<path d="M39.7239 42.3682L39.0946 40.4043L38.4663 42.3701L36.4102 42.3682L38.0779 43.5672L37.4535 45.5054L39.0956 44.3069L40.7366 45.5054L40.1122 43.5672L41.7799 42.3682H39.7239Z" fill="#FFF200"/>
<path d="M48.2121 40.1106L47.5837 38.1487L46.9539 40.1125L44.8994 40.1106L46.5656 41.3091L45.9417 43.2473L47.5837 42.0488L49.2268 43.2473L48.6004 41.3091L50.2681 40.1106H48.2121Z" fill="#FFF200"/>
<path d="M54.4446 33.8799L53.8143 31.916L53.184 33.8818L51.13 33.8799L52.7986 35.0789L52.1723 37.0166L53.8143 35.8161L55.4569 37.0166L54.831 35.0789L56.4987 33.8799H54.4446Z" fill="#FFF200"/>
<path d="M59.2624 25.3425H56.7003L56.07 23.3787L55.4421 25.345L53.3861 25.3425L55.0533 26.541L54.4304 28.4793L56.07 27.2783L57.7125 28.4793L57.0886 26.541L59.2624 25.3425Z" fill="#FFF200"/>
<path d="M52.1723 19.989L53.8143 18.79L55.4569 19.989L54.831 18.0503L56.4987 16.8542H54.4446L53.8143 14.8904L53.184 16.8562L51.13 16.8542L52.7986 18.0503L52.1723 19.989Z" fill="#FFF200"/>
<path d="M47.6073 8.68286L46.9795 10.6492L44.923 10.6452L46.5887 11.8457L45.9653 13.7835L47.6098 12.583L49.2499 13.7835L48.6255 11.8457L50.2941 10.6452H48.2361L47.6073 8.68286Z" fill="#FFF200"/>
<path d="M83.7823 35.5513V28.3931H88.9581V29.2378H84.7296V31.4302H88.6895V32.27H84.7296V34.7065H89.1241V35.5513H83.7823ZM95.13 28.3931H96.0772V32.5288C96.0772 33.2482 95.9959 33.8195 95.8331 34.2427C95.6703 34.6659 95.3757 35.0109 94.9493 35.2778C94.5261 35.5415 93.9695 35.6733 93.2794 35.6733C92.6088 35.6733 92.0603 35.5578 91.6339 35.3267C91.2074 35.0955 90.9031 34.7619 90.7208 34.3257C90.5385 33.8862 90.4474 33.2873 90.4474 32.5288V28.3931H91.3946V32.5239C91.3946 33.1457 91.4516 33.6047 91.5655 33.9009C91.6827 34.1938 91.8813 34.4201 92.1612 34.5796C92.4444 34.7391 92.7895 34.8188 93.1964 34.8188C93.893 34.8188 94.3894 34.661 94.6856 34.3452C94.9819 34.0295 95.13 33.4224 95.13 32.5239V28.3931ZM97.6739 35.5513V28.3931H100.848C101.486 28.3931 101.971 28.4582 102.303 28.5884C102.635 28.7153 102.9 28.9416 103.099 29.2671C103.297 29.5926 103.397 29.9523 103.397 30.3462C103.397 30.854 103.232 31.2821 102.903 31.6304C102.575 31.9787 102.067 32.2 101.38 32.2944C101.631 32.4149 101.821 32.5337 101.951 32.6509C102.228 32.9048 102.49 33.2222 102.737 33.603L103.983 35.5513H102.791L101.844 34.062C101.567 33.6323 101.339 33.3035 101.16 33.0757C100.981 32.8478 100.82 32.6883 100.677 32.5972C100.537 32.506 100.394 32.4425 100.247 32.4067C100.14 32.384 99.964 32.3726 99.7198 32.3726H98.6212V35.5513H97.6739ZM98.6212 31.5522H100.657C101.09 31.5522 101.429 31.5083 101.673 31.4204C101.917 31.3293 102.103 31.186 102.23 30.9907C102.357 30.7922 102.42 30.5773 102.42 30.3462C102.42 30.0076 102.296 29.7293 102.049 29.5112C101.805 29.2931 101.417 29.1841 100.887 29.1841H98.6212V31.5522ZM104.598 32.0649C104.598 30.8768 104.917 29.9474 105.555 29.2769C106.193 28.603 107.016 28.2661 108.025 28.2661C108.686 28.2661 109.282 28.424 109.813 28.7397C110.343 29.0555 110.747 29.4966 111.024 30.063C111.303 30.6261 111.443 31.2658 111.443 31.9819C111.443 32.7078 111.297 33.3573 111.004 33.9302C110.711 34.5031 110.296 34.9377 109.759 35.2339C109.222 35.5269 108.642 35.6733 108.021 35.6733C107.347 35.6733 106.745 35.5106 106.214 35.1851C105.683 34.8595 105.281 34.4152 105.008 33.8521C104.734 33.2889 104.598 32.6932 104.598 32.0649ZM105.574 32.0796C105.574 32.9422 105.805 33.6226 106.268 34.1206C106.733 34.6154 107.316 34.8628 108.016 34.8628C108.729 34.8628 109.315 34.6121 109.774 34.1108C110.236 33.6095 110.467 32.8983 110.467 31.9771C110.467 31.3944 110.368 30.8866 110.169 30.4536C109.974 30.0174 109.686 29.6805 109.305 29.4429C108.927 29.202 108.502 29.0815 108.03 29.0815C107.36 29.0815 106.782 29.3127 106.297 29.7749C105.815 30.2339 105.574 31.0021 105.574 32.0796ZM112.669 35.5513V28.3931H115.369C115.844 28.3931 116.207 28.4159 116.458 28.4614C116.81 28.52 117.104 28.6323 117.342 28.7983C117.58 28.9611 117.77 29.1906 117.913 29.4868C118.06 29.783 118.133 30.1086 118.133 30.4634C118.133 31.0721 117.939 31.5881 117.552 32.0112C117.164 32.4312 116.465 32.6411 115.452 32.6411H113.616V35.5513H112.669ZM113.616 31.7964H115.467C116.079 31.7964 116.513 31.6825 116.771 31.4546C117.028 31.2267 117.156 30.9061 117.156 30.4927C117.156 30.1932 117.08 29.9377 116.927 29.7261C116.777 29.5112 116.579 29.3696 116.331 29.3013C116.172 29.259 115.877 29.2378 115.447 29.2378H113.616V31.7964ZM118.553 35.5513L121.302 28.3931H122.322L125.252 35.5513H124.173L123.338 33.3833H120.345L119.559 35.5513H118.553ZM120.618 32.6118H123.045L122.298 30.6294C122.07 30.0272 121.901 29.5324 121.79 29.145C121.699 29.604 121.57 30.0597 121.404 30.5122L120.618 32.6118ZM120.418 27.9536V26.9526H121.336V27.9536H120.418ZM122.239 27.9536V26.9526H123.157V27.9536H122.239ZM126.17 35.5513V28.3931H127.117V35.5513H126.17ZM128.47 33.2515L129.363 33.1733C129.406 33.5314 129.503 33.826 129.656 34.0571C129.813 34.285 130.053 34.4705 130.379 34.6138C130.705 34.7537 131.071 34.8237 131.478 34.8237C131.839 34.8237 132.158 34.77 132.435 34.6626C132.711 34.5552 132.916 34.4087 133.05 34.2231C133.187 34.0343 133.255 33.8293 133.255 33.6079C133.255 33.3833 133.19 33.188 133.06 33.022C132.929 32.8527 132.715 32.7111 132.415 32.5972C132.223 32.5223 131.798 32.4067 131.141 32.2505C130.483 32.091 130.023 31.9412 129.759 31.8013C129.417 31.6222 129.162 31.4009 128.992 31.1372C128.826 30.8703 128.743 30.5724 128.743 30.2437C128.743 29.8823 128.846 29.5454 129.051 29.2329C129.256 28.9172 129.555 28.6779 129.949 28.5151C130.343 28.3524 130.781 28.271 131.263 28.271C131.793 28.271 132.261 28.3573 132.664 28.5298C133.071 28.6991 133.384 28.9497 133.602 29.2817C133.82 29.6138 133.937 29.9897 133.953 30.4097L133.045 30.478C132.996 30.0256 132.83 29.6838 132.547 29.4526C132.267 29.2215 131.852 29.106 131.302 29.106C130.729 29.106 130.311 29.2118 130.047 29.4233C129.787 29.6317 129.656 29.884 129.656 30.1802C129.656 30.4373 129.749 30.6489 129.935 30.8149C130.117 30.981 130.592 31.1519 131.36 31.3276C132.132 31.5002 132.661 31.6515 132.947 31.7817C133.364 31.9738 133.672 32.2179 133.87 32.5142C134.069 32.8071 134.168 33.1457 134.168 33.5298C134.168 33.9106 134.059 34.2703 133.841 34.6089C133.623 34.9442 133.309 35.2062 132.899 35.395C132.492 35.5806 132.033 35.6733 131.522 35.6733C130.874 35.6733 130.33 35.5789 129.891 35.3901C129.455 35.2013 129.111 34.9181 128.86 34.5405C128.613 34.1597 128.483 33.73 128.47 33.2515ZM140.569 33.0415L141.517 33.2808C141.318 34.0588 140.96 34.6528 140.442 35.063C139.928 35.4699 139.298 35.6733 138.553 35.6733C137.781 35.6733 137.153 35.5171 136.668 35.2046C136.186 34.8888 135.818 34.4331 135.565 33.8374C135.314 33.2417 135.189 32.6021 135.189 31.9185C135.189 31.173 135.33 30.5236 135.613 29.9702C135.9 29.4136 136.305 28.992 136.829 28.7056C137.357 28.4159 137.936 28.271 138.567 28.271C139.284 28.271 139.886 28.4533 140.374 28.8179C140.862 29.1825 141.203 29.6951 141.395 30.356L140.462 30.5757C140.296 30.0549 140.055 29.6756 139.739 29.438C139.424 29.2004 139.026 29.0815 138.548 29.0815C137.998 29.0815 137.537 29.2134 137.166 29.4771C136.798 29.7407 136.539 30.0955 136.39 30.5415C136.24 30.9842 136.165 31.4416 136.165 31.9136C136.165 32.5223 136.253 33.0545 136.429 33.5103C136.608 33.9627 136.885 34.3013 137.259 34.5259C137.633 34.7505 138.039 34.8628 138.475 34.8628C139.005 34.8628 139.455 34.7098 139.822 34.4038C140.19 34.0978 140.439 33.6437 140.569 33.0415ZM142.718 35.5513V28.3931H143.665V31.3325H147.386V28.3931H148.333V35.5513H147.386V32.1772H143.665V35.5513H142.718ZM149.935 35.5513V28.3931H155.11V29.2378H150.882V31.4302H154.842V32.27H150.882V34.7065H155.276V35.5513H149.935ZM164.066 28.3931H165.013V32.5288C165.013 33.2482 164.931 33.8195 164.769 34.2427C164.606 34.6659 164.311 35.0109 163.885 35.2778C163.462 35.5415 162.905 35.6733 162.215 35.6733C161.544 35.6733 160.996 35.5578 160.569 35.3267C160.143 35.0955 159.839 34.7619 159.656 34.3257C159.474 33.8862 159.383 33.2873 159.383 32.5288V28.3931H160.33V32.5239C160.33 33.1457 160.387 33.6047 160.501 33.9009C160.618 34.1938 160.817 34.4201 161.097 34.5796C161.38 34.7391 161.725 34.8188 162.132 34.8188C162.829 34.8188 163.325 34.661 163.621 34.3452C163.917 34.0295 164.066 33.4224 164.066 32.5239V28.3931ZM166.585 35.5513V28.3931H167.557L171.316 34.0132V28.3931H172.225V35.5513H171.253L167.493 29.9263V35.5513H166.585ZM173.983 35.5513V28.3931H174.93V35.5513H173.983ZM176.316 32.0649C176.316 30.8768 176.636 29.9474 177.274 29.2769C177.912 28.603 178.735 28.2661 179.744 28.2661C180.405 28.2661 181.001 28.424 181.531 28.7397C182.062 29.0555 182.466 29.4966 182.742 30.063C183.022 30.6261 183.162 31.2658 183.162 31.9819C183.162 32.7078 183.016 33.3573 182.723 33.9302C182.43 34.5031 182.015 34.9377 181.478 35.2339C180.941 35.5269 180.361 35.6733 179.739 35.6733C179.066 35.6733 178.463 35.5106 177.933 35.1851C177.402 34.8595 177 34.4152 176.727 33.8521C176.453 33.2889 176.316 32.6932 176.316 32.0649ZM177.293 32.0796C177.293 32.9422 177.524 33.6226 177.986 34.1206C178.452 34.6154 179.035 34.8628 179.734 34.8628C180.447 34.8628 181.033 34.6121 181.492 34.1108C181.955 33.6095 182.186 32.8983 182.186 31.9771C182.186 31.3944 182.086 30.8866 181.888 30.4536C181.692 30.0174 181.404 29.6805 181.024 29.4429C180.646 29.202 180.221 29.0815 179.749 29.0815C179.079 29.0815 178.501 29.3127 178.016 29.7749C177.534 30.2339 177.293 31.0021 177.293 32.0796ZM184.378 35.5513V28.3931H185.35L189.109 34.0132V28.3931H190.018V35.5513H189.046L185.286 29.9263V35.5513H184.378ZM83.7823 46.5513V39.3931H88.9581V40.2378H84.7296V42.4302H88.6895V43.27H84.7296V45.7065H89.1241V46.5513H83.7823ZM93.7188 46.5513V45.7896C93.3152 46.3755 92.7667 46.6685 92.0733 46.6685C91.7673 46.6685 91.4809 46.6099 91.214 46.4927C90.9503 46.3755 90.7533 46.229 90.6231 46.0532C90.4962 45.8742 90.4067 45.6561 90.3546 45.3989C90.3188 45.2264 90.3009 44.953 90.3009 44.5786V41.3657H91.1798V44.2417C91.1798 44.7007 91.1977 45.0099 91.2335 45.1694C91.2888 45.4006 91.406 45.5828 91.5851 45.7163C91.7641 45.8465 91.9854 45.9116 92.2491 45.9116C92.5128 45.9116 92.7602 45.8449 92.9913 45.7114C93.2224 45.5747 93.3852 45.3908 93.4796 45.1597C93.5772 44.9253 93.6261 44.5868 93.6261 44.144V41.3657H94.505V46.5513H93.7188ZM95.877 46.5513V41.3657H96.6681V42.1519C96.8699 41.784 97.0554 41.5415 97.2247 41.4243C97.3972 41.3071 97.586 41.2485 97.7911 41.2485C98.0873 41.2485 98.3884 41.3429 98.6944 41.5317L98.3917 42.3472C98.1768 42.2202 97.962 42.1567 97.7472 42.1567C97.5551 42.1567 97.3826 42.2153 97.2296 42.3325C97.0766 42.4465 96.9675 42.606 96.9024 42.811C96.8048 43.1235 96.756 43.4653 96.756 43.8364V46.5513H95.877ZM98.8897 43.9585C98.8897 42.9982 99.1567 42.2869 99.6905 41.8247C100.136 41.4406 100.68 41.2485 101.321 41.2485C102.034 41.2485 102.617 41.4829 103.069 41.9517C103.522 42.4172 103.748 43.0617 103.748 43.8853C103.748 44.5526 103.647 45.0783 103.445 45.4624C103.247 45.8433 102.955 46.1395 102.571 46.3511C102.191 46.5627 101.774 46.6685 101.321 46.6685C100.595 46.6685 100.008 46.4357 99.5587 45.9702C99.1127 45.5047 98.8897 44.8341 98.8897 43.9585ZM99.7931 43.9585C99.7931 44.6226 99.9379 45.1206 100.228 45.4526C100.517 45.7814 100.882 45.9458 101.321 45.9458C101.758 45.9458 102.121 45.7798 102.41 45.4478C102.7 45.1157 102.845 44.6095 102.845 43.9292C102.845 43.2879 102.698 42.8029 102.405 42.4741C102.116 42.1421 101.754 41.9761 101.321 41.9761C100.882 41.9761 100.517 42.1405 100.228 42.4692C99.9379 42.798 99.7931 43.2944 99.7931 43.9585ZM104.783 48.5386V41.3657H105.584V42.0396C105.773 41.7759 105.986 41.5789 106.224 41.4487C106.461 41.3153 106.749 41.2485 107.088 41.2485C107.531 41.2485 107.921 41.3625 108.26 41.5903C108.598 41.8182 108.854 42.1405 109.026 42.5571C109.199 42.9705 109.285 43.4246 109.285 43.9194C109.285 44.45 109.189 44.9285 108.997 45.355C108.808 45.7782 108.532 46.1037 108.167 46.3315C107.806 46.5562 107.425 46.6685 107.025 46.6685C106.732 46.6685 106.468 46.6066 106.233 46.4829C106.002 46.3592 105.812 46.203 105.662 46.0142V48.5386H104.783ZM105.579 43.9878C105.579 44.6551 105.714 45.1483 105.984 45.4673C106.255 45.7863 106.582 45.9458 106.966 45.9458C107.357 45.9458 107.69 45.7814 107.967 45.4526C108.247 45.1206 108.387 44.6079 108.387 43.9146C108.387 43.2537 108.25 42.759 107.977 42.4302C107.706 42.1014 107.383 41.937 107.005 41.937C106.631 41.937 106.299 42.1128 106.009 42.4644C105.722 42.8127 105.579 43.3205 105.579 43.9878ZM113.733 45.9116C113.408 46.1883 113.094 46.3836 112.791 46.4976C112.492 46.6115 112.169 46.6685 111.824 46.6685C111.255 46.6685 110.817 46.5301 110.511 46.2534C110.205 45.9735 110.052 45.617 110.052 45.1841C110.052 44.9302 110.109 44.6991 110.223 44.4907C110.34 44.2791 110.491 44.1099 110.677 43.9829C110.866 43.856 111.077 43.7599 111.312 43.6948C111.484 43.6493 111.745 43.6053 112.093 43.563C112.803 43.4784 113.325 43.3774 113.66 43.2603C113.664 43.1398 113.665 43.0633 113.665 43.0308C113.665 42.6727 113.582 42.4204 113.416 42.2739C113.191 42.0754 112.858 41.9761 112.415 41.9761C112.002 41.9761 111.696 42.0493 111.497 42.1958C111.302 42.339 111.157 42.5946 111.063 42.9624L110.203 42.8452C110.281 42.4774 110.41 42.1812 110.589 41.9565C110.768 41.7287 111.027 41.5545 111.365 41.4341C111.704 41.3104 112.096 41.2485 112.542 41.2485C112.985 41.2485 113.344 41.3006 113.621 41.4048C113.898 41.509 114.101 41.6408 114.232 41.8003C114.362 41.9565 114.453 42.1551 114.505 42.396C114.534 42.5457 114.549 42.8159 114.549 43.2065V44.3784C114.549 45.1955 114.567 45.7131 114.603 45.9312C114.642 46.146 114.717 46.3527 114.827 46.5513H113.909C113.818 46.369 113.76 46.1558 113.733 45.9116ZM113.66 43.9487C113.341 44.0789 112.863 44.1896 112.225 44.2808C111.863 44.3328 111.608 44.3914 111.458 44.4565C111.308 44.5216 111.193 44.6177 111.111 44.7446C111.03 44.8683 110.989 45.0067 110.989 45.1597C110.989 45.394 111.077 45.5894 111.253 45.7456C111.432 45.9019 111.692 45.98 112.034 45.98C112.373 45.98 112.674 45.9067 112.938 45.7603C113.201 45.6105 113.395 45.4071 113.519 45.1499C113.613 44.9513 113.66 44.6584 113.66 44.271V43.9487ZM111.072 40.3501V39.3491H111.99V40.3501H111.072ZM112.894 40.3501V39.3491H113.812V40.3501H112.894ZM115.921 40.4038V39.3931H116.8V40.4038H115.921ZM115.921 46.5513V41.3657H116.8V46.5513H115.921ZM117.791 45.0034L118.66 44.8667C118.709 45.215 118.844 45.4819 119.066 45.6675C119.29 45.853 119.603 45.9458 120.003 45.9458C120.407 45.9458 120.706 45.8644 120.901 45.7017C121.097 45.5356 121.194 45.342 121.194 45.1206C121.194 44.922 121.108 44.7658 120.936 44.6519C120.815 44.5737 120.516 44.4744 120.037 44.354C119.393 44.1912 118.945 44.0513 118.694 43.9341C118.447 43.8136 118.258 43.6493 118.128 43.4409C118.001 43.2293 117.938 42.9966 117.938 42.7427C117.938 42.5116 117.99 42.2983 118.094 42.103C118.201 41.9045 118.346 41.7401 118.528 41.6099C118.665 41.509 118.851 41.4243 119.085 41.356C119.323 41.2843 119.577 41.2485 119.847 41.2485C120.254 41.2485 120.61 41.3071 120.916 41.4243C121.225 41.5415 121.453 41.701 121.6 41.9028C121.746 42.1014 121.847 42.3683 121.902 42.7036L121.043 42.8208C121.004 42.5539 120.89 42.3455 120.701 42.1958C120.516 42.0461 120.252 41.9712 119.91 41.9712C119.507 41.9712 119.219 42.0379 119.046 42.1714C118.873 42.3049 118.787 42.4611 118.787 42.6401C118.787 42.7541 118.823 42.8566 118.895 42.9478C118.966 43.0422 119.079 43.1203 119.232 43.1821C119.319 43.2147 119.578 43.2896 120.008 43.4067C120.63 43.5728 121.063 43.7095 121.307 43.8169C121.554 43.9211 121.748 44.0741 121.888 44.2759C122.028 44.4777 122.098 44.7284 122.098 45.0278C122.098 45.3208 122.011 45.5975 121.839 45.8579C121.67 46.1151 121.424 46.3153 121.102 46.4585C120.779 46.5985 120.415 46.6685 120.008 46.6685C119.334 46.6685 118.82 46.5285 118.465 46.2485C118.113 45.9686 117.889 45.5535 117.791 45.0034ZM126.526 44.6519L127.391 44.7642C127.296 45.3599 127.054 45.827 126.663 46.1655C126.276 46.5008 125.799 46.6685 125.233 46.6685C124.523 46.6685 123.952 46.4373 123.519 45.9751C123.089 45.5096 122.874 44.8439 122.874 43.978C122.874 43.4181 122.967 42.9282 123.152 42.5083C123.338 42.0884 123.62 41.7743 123.997 41.5659C124.378 41.3543 124.791 41.2485 125.237 41.2485C125.801 41.2485 126.261 41.3918 126.619 41.6782C126.977 41.9614 127.207 42.3651 127.308 42.8892L126.453 43.021C126.372 42.6727 126.227 42.4106 126.019 42.2349C125.814 42.0591 125.565 41.9712 125.272 41.9712C124.829 41.9712 124.469 42.1307 124.192 42.4497C123.916 42.7655 123.777 43.2668 123.777 43.9536C123.777 44.6502 123.911 45.1564 124.178 45.4722C124.445 45.7879 124.793 45.9458 125.223 45.9458C125.568 45.9458 125.856 45.84 126.087 45.6284C126.318 45.4168 126.465 45.0913 126.526 44.6519ZM128.143 46.5513V39.3931H129.022V41.9614C129.432 41.4862 129.949 41.2485 130.574 41.2485C130.958 41.2485 131.292 41.325 131.575 41.478C131.858 41.6278 132.06 41.8361 132.181 42.103C132.304 42.37 132.366 42.7573 132.366 43.2651V46.5513H131.487V43.2651C131.487 42.8257 131.391 42.5067 131.199 42.3081C131.011 42.1063 130.742 42.0054 130.394 42.0054C130.133 42.0054 129.887 42.0737 129.656 42.2104C129.428 42.3439 129.266 42.5262 129.168 42.7573C129.07 42.9884 129.022 43.3075 129.022 43.7144V46.5513H128.143ZM137.259 44.8813L138.167 44.9937C138.024 45.5243 137.759 45.936 137.371 46.229C136.984 46.522 136.489 46.6685 135.887 46.6685C135.128 46.6685 134.526 46.4357 134.08 45.9702C133.637 45.5015 133.416 44.8455 133.416 44.0024C133.416 43.13 133.641 42.453 134.09 41.9712C134.539 41.4894 135.122 41.2485 135.838 41.2485C136.531 41.2485 137.098 41.4845 137.537 41.9565C137.977 42.4285 138.196 43.0926 138.196 43.9487C138.196 44.0008 138.195 44.0789 138.191 44.1831H134.324C134.357 44.7528 134.518 45.189 134.808 45.4917C135.097 45.7944 135.459 45.9458 135.892 45.9458C136.214 45.9458 136.489 45.8612 136.717 45.6919C136.945 45.5226 137.125 45.2524 137.259 44.8813ZM134.373 43.4604H137.269C137.23 43.0243 137.119 42.6971 136.937 42.479C136.657 42.1405 136.294 41.9712 135.848 41.9712C135.444 41.9712 135.104 42.1063 134.827 42.3765C134.554 42.6466 134.402 43.008 134.373 43.4604ZM139.266 46.5513V41.3657H140.057V42.1519C140.259 41.784 140.444 41.5415 140.613 41.4243C140.786 41.3071 140.975 41.2485 141.18 41.2485C141.476 41.2485 141.777 41.3429 142.083 41.5317L141.78 42.3472C141.566 42.2202 141.351 42.1567 141.136 42.1567C140.944 42.1567 140.771 42.2153 140.618 42.3325C140.465 42.4465 140.356 42.606 140.291 42.811C140.193 43.1235 140.145 43.4653 140.145 43.8364V46.5513H139.266ZM145.179 44.2515L146.072 44.1733C146.115 44.5314 146.212 44.826 146.365 45.0571C146.522 45.285 146.762 45.4705 147.088 45.6138C147.414 45.7537 147.78 45.8237 148.187 45.8237C148.548 45.8237 148.867 45.77 149.144 45.6626C149.42 45.5552 149.625 45.4087 149.759 45.2231C149.896 45.0343 149.964 44.8293 149.964 44.6079C149.964 44.3833 149.899 44.188 149.769 44.022C149.638 43.8527 149.424 43.7111 149.124 43.5972C148.932 43.5223 148.507 43.4067 147.85 43.2505C147.192 43.091 146.732 42.9412 146.468 42.8013C146.126 42.6222 145.871 42.4009 145.701 42.1372C145.535 41.8703 145.452 41.5724 145.452 41.2437C145.452 40.8823 145.555 40.5454 145.76 40.2329C145.965 39.9172 146.264 39.6779 146.658 39.5151C147.052 39.3524 147.49 39.271 147.972 39.271C148.502 39.271 148.969 39.3573 149.373 39.5298C149.78 39.6991 150.093 39.9497 150.311 40.2817C150.529 40.6138 150.646 40.9897 150.662 41.4097L149.754 41.478C149.705 41.0256 149.539 40.6838 149.256 40.4526C148.976 40.2215 148.561 40.106 148.011 40.106C147.438 40.106 147.02 40.2118 146.756 40.4233C146.496 40.6317 146.365 40.884 146.365 41.1802C146.365 41.4373 146.458 41.6489 146.644 41.8149C146.826 41.981 147.301 42.1519 148.069 42.3276C148.841 42.5002 149.37 42.6515 149.656 42.7817C150.073 42.9738 150.381 43.2179 150.579 43.5142C150.778 43.8071 150.877 44.1457 150.877 44.5298C150.877 44.9106 150.768 45.2703 150.55 45.6089C150.332 45.9442 150.018 46.2062 149.608 46.395C149.201 46.5806 148.742 46.6733 148.231 46.6733C147.583 46.6733 147.039 46.5789 146.6 46.3901C146.164 46.2013 145.82 45.9181 145.569 45.5405C145.322 45.1597 145.192 44.73 145.179 44.2515ZM151.732 43.9585C151.732 42.9982 151.998 42.2869 152.532 41.8247C152.978 41.4406 153.522 41.2485 154.163 41.2485C154.876 41.2485 155.459 41.4829 155.911 41.9517C156.364 42.4172 156.59 43.0617 156.59 43.8853C156.59 44.5526 156.489 45.0783 156.287 45.4624C156.089 45.8433 155.797 46.1395 155.413 46.3511C155.032 46.5627 154.616 46.6685 154.163 46.6685C153.437 46.6685 152.85 46.4357 152.4 45.9702C151.955 45.5047 151.732 44.8341 151.732 43.9585ZM152.635 43.9585C152.635 44.6226 152.78 45.1206 153.069 45.4526C153.359 45.7814 153.724 45.9458 154.163 45.9458C154.599 45.9458 154.962 45.7798 155.252 45.4478C155.542 45.1157 155.687 44.6095 155.687 43.9292C155.687 43.2879 155.54 42.8029 155.247 42.4741C154.957 42.1421 154.596 41.9761 154.163 41.9761C153.724 41.9761 153.359 42.1405 153.069 42.4692C152.78 42.798 152.635 43.2944 152.635 43.9585ZM157.161 46.5513V45.8384L160.462 42.0493C160.088 42.0688 159.757 42.0786 159.471 42.0786H157.357V41.3657H161.595V41.9468L158.787 45.2378L158.245 45.8384C158.639 45.8091 159.009 45.7944 159.354 45.7944H161.751V46.5513H157.161ZM162.63 40.4038V39.3931H163.509V40.4038H162.63ZM162.63 46.5513V41.3657H163.509V46.5513H162.63ZM168.235 45.9116C167.91 46.1883 167.596 46.3836 167.293 46.4976C166.994 46.6115 166.671 46.6685 166.326 46.6685C165.757 46.6685 165.319 46.5301 165.013 46.2534C164.707 45.9735 164.554 45.617 164.554 45.1841C164.554 44.9302 164.611 44.6991 164.725 44.4907C164.842 44.2791 164.993 44.1099 165.179 43.9829C165.368 43.856 165.579 43.7599 165.814 43.6948C165.986 43.6493 166.247 43.6053 166.595 43.563C167.304 43.4784 167.827 43.3774 168.162 43.2603C168.165 43.1398 168.167 43.0633 168.167 43.0308C168.167 42.6727 168.084 42.4204 167.918 42.2739C167.693 42.0754 167.36 41.9761 166.917 41.9761C166.504 41.9761 166.198 42.0493 165.999 42.1958C165.804 42.339 165.659 42.5946 165.565 42.9624L164.705 42.8452C164.783 42.4774 164.912 42.1812 165.091 41.9565C165.27 41.7287 165.529 41.5545 165.867 41.4341C166.206 41.3104 166.598 41.2485 167.044 41.2485C167.487 41.2485 167.846 41.3006 168.123 41.4048C168.4 41.509 168.603 41.6408 168.733 41.8003C168.864 41.9565 168.955 42.1551 169.007 42.396C169.036 42.5457 169.051 42.8159 169.051 43.2065V44.3784C169.051 45.1955 169.069 45.7131 169.105 45.9312C169.144 46.146 169.219 46.3527 169.329 46.5513H168.411C168.32 46.369 168.261 46.1558 168.235 45.9116ZM168.162 43.9487C167.843 44.0789 167.365 44.1896 166.727 44.2808C166.365 44.3328 166.11 44.3914 165.96 44.4565C165.81 44.5216 165.695 44.6177 165.613 44.7446C165.532 44.8683 165.491 45.0067 165.491 45.1597C165.491 45.394 165.579 45.5894 165.755 45.7456C165.934 45.9019 166.194 45.98 166.536 45.98C166.875 45.98 167.176 45.9067 167.44 45.7603C167.703 45.6105 167.897 45.4071 168.021 45.1499C168.115 44.9513 168.162 44.6584 168.162 44.271V43.9487ZM170.399 46.5513V39.3931H171.277V46.5513H170.399ZM172.855 46.5513V42.0493H172.078V41.3657H172.855V40.814C172.855 40.4657 172.886 40.2069 172.947 40.0376C173.032 39.8097 173.18 39.6258 173.392 39.4858C173.607 39.3426 173.906 39.271 174.29 39.271C174.538 39.271 174.811 39.3003 175.11 39.3589L174.979 40.1255C174.796 40.0929 174.624 40.0767 174.461 40.0767C174.194 40.0767 174.005 40.1336 173.895 40.2476C173.784 40.3615 173.729 40.5747 173.729 40.8872V41.3657H174.739V42.0493H173.729V46.5513H172.855ZM175.101 43.9585C175.101 42.9982 175.368 42.2869 175.901 41.8247C176.347 41.4406 176.891 41.2485 177.532 41.2485C178.245 41.2485 178.828 41.4829 179.28 41.9517C179.733 42.4172 179.959 43.0617 179.959 43.8853C179.959 44.5526 179.858 45.0783 179.656 45.4624C179.458 45.8433 179.166 46.1395 178.782 46.3511C178.401 46.5627 177.985 46.6685 177.532 46.6685C176.806 46.6685 176.219 46.4357 175.77 45.9702C175.324 45.5047 175.101 44.8341 175.101 43.9585ZM176.004 43.9585C176.004 44.6226 176.149 45.1206 176.439 45.4526C176.728 45.7814 177.093 45.9458 177.532 45.9458C177.969 45.9458 178.331 45.7798 178.621 45.4478C178.911 45.1157 179.056 44.6095 179.056 43.9292C179.056 43.2879 178.909 42.8029 178.616 42.4741C178.327 42.1421 177.965 41.9761 177.532 41.9761C177.093 41.9761 176.728 42.1405 176.439 42.4692C176.149 42.798 176.004 43.2944 176.004 43.9585ZM180.994 46.5513V41.3657H181.785V42.103C182.166 41.5334 182.716 41.2485 183.436 41.2485C183.748 41.2485 184.035 41.3055 184.295 41.4194C184.559 41.5301 184.756 41.6766 184.886 41.8589C185.016 42.0412 185.107 42.2576 185.159 42.5083C185.192 42.6711 185.208 42.9559 185.208 43.3628V46.5513H184.329V43.397C184.329 43.0389 184.295 42.772 184.227 42.5962C184.158 42.4172 184.036 42.2756 183.86 42.1714C183.688 42.064 183.484 42.0103 183.25 42.0103C182.876 42.0103 182.552 42.1291 182.278 42.3667C182.008 42.6043 181.873 43.0552 181.873 43.7192V46.5513H180.994ZM189.925 46.5513V45.897C189.596 46.4113 189.113 46.6685 188.475 46.6685C188.061 46.6685 187.68 46.5545 187.332 46.3267C186.987 46.0988 186.719 45.7814 186.526 45.3745C186.338 44.9644 186.243 44.494 186.243 43.9634C186.243 43.4458 186.33 42.9771 186.502 42.5571C186.675 42.134 186.933 41.8101 187.278 41.5854C187.623 41.3608 188.009 41.2485 188.436 41.2485C188.748 41.2485 189.026 41.3153 189.271 41.4487C189.515 41.5789 189.713 41.7498 189.866 41.9614V39.3931H190.74V46.5513H189.925ZM187.147 43.9634C187.147 44.6274 187.287 45.1239 187.566 45.4526C187.846 45.7814 188.177 45.9458 188.558 45.9458C188.942 45.9458 189.267 45.7896 189.534 45.4771C189.804 45.1613 189.94 44.6812 189.94 44.0366C189.94 43.327 189.803 42.8062 189.529 42.4741C189.256 42.1421 188.919 41.9761 188.519 41.9761C188.128 41.9761 187.801 42.1356 187.537 42.4546C187.277 42.7736 187.147 43.2765 187.147 43.9634ZM191.775 45.0034L192.645 44.8667C192.693 45.215 192.829 45.4819 193.05 45.6675C193.275 45.853 193.587 45.9458 193.987 45.9458C194.391 45.9458 194.691 45.8644 194.886 45.7017C195.081 45.5356 195.179 45.342 195.179 45.1206C195.179 44.922 195.093 44.7658 194.92 44.6519C194.8 44.5737 194.5 44.4744 194.022 44.354C193.377 44.1912 192.929 44.0513 192.679 43.9341C192.431 43.8136 192.243 43.6493 192.112 43.4409C191.985 43.2293 191.922 42.9966 191.922 42.7427C191.922 42.5116 191.974 42.2983 192.078 42.103C192.186 41.9045 192.33 41.7401 192.513 41.6099C192.65 41.509 192.835 41.4243 193.069 41.356C193.307 41.2843 193.561 41.2485 193.831 41.2485C194.238 41.2485 194.594 41.3071 194.9 41.4243C195.21 41.5415 195.438 41.701 195.584 41.9028C195.731 42.1014 195.831 42.3683 195.887 42.7036L195.027 42.8208C194.988 42.5539 194.874 42.3455 194.686 42.1958C194.5 42.0461 194.236 41.9712 193.895 41.9712C193.491 41.9712 193.203 42.0379 193.03 42.1714C192.858 42.3049 192.772 42.4611 192.772 42.6401C192.772 42.7541 192.807 42.8566 192.879 42.9478C192.951 43.0422 193.063 43.1203 193.216 43.1821C193.304 43.2147 193.563 43.2896 193.992 43.4067C194.614 43.5728 195.047 43.7095 195.291 43.8169C195.539 43.9211 195.732 44.0741 195.872 44.2759C196.012 44.4777 196.082 44.7284 196.082 45.0278C196.082 45.3208 195.996 45.5975 195.823 45.8579C195.654 46.1151 195.408 46.3153 195.086 46.4585C194.764 46.5985 194.399 46.6685 193.992 46.6685C193.318 46.6685 192.804 46.5285 192.449 46.2485C192.098 45.9686 191.873 45.5535 191.775 45.0034Z" fill="black"/>
</svg>
