<svg width="112" height="66" viewBox="0 0 112 66" fill="none" xmlns="http://www.w3.org/2000/svg">
<path d="M21.457 32.344H22.674V34.892H24.556V32.344H25.773V38.551H24.556V35.975H22.674V38.551H21.457V32.344Z" fill="black"/>
<path d="M26.967 37.2679C26.891 36.9549 26.881 36.6879 26.881 36.1649C26.881 35.6509 26.891 35.3859 26.967 35.0709C27.157 34.2629 27.879 33.6929 28.849 33.6929C29.819 33.6929 30.513 34.2629 30.712 35.0709C30.788 35.3849 30.798 35.6509 30.798 36.1649C30.798 36.6869 30.788 36.9539 30.712 37.2679C30.523 38.0669 29.79 38.6459 28.811 38.6459C27.85 38.6469 27.166 38.0669 26.967 37.2679ZM29.561 37.0209C29.628 36.7359 29.628 36.4499 29.628 36.1659C29.628 35.8909 29.628 35.5859 29.561 35.3009C29.486 34.9969 29.248 34.7309 28.83 34.7309C28.421 34.7309 28.165 34.9879 28.098 35.3299C28.051 35.5869 28.041 35.8919 28.041 36.1669C28.041 36.4519 28.051 36.7369 28.098 36.9939C28.165 37.3359 28.421 37.5939 28.83 37.5939C29.248 37.5919 29.486 37.3249 29.561 37.0209Z" fill="black"/>
<path d="M31.812 37.2681C31.736 36.9551 31.716 36.6881 31.716 36.1651C31.716 35.6511 31.736 35.3751 31.812 35.0531C32.001 34.2541 32.62 33.6941 33.599 33.6941C34.511 33.6941 35.148 34.0841 35.338 34.9671C35.376 35.1571 35.396 35.3581 35.396 35.5851V35.7281H34.246V35.6521C34.246 35.5191 34.246 35.4341 34.236 35.3581C34.179 34.9391 33.961 34.7301 33.571 34.7301C33.162 34.7301 32.981 34.9771 32.915 35.3861C32.887 35.5571 32.887 35.8901 32.887 36.1651C32.887 36.4501 32.887 36.7261 32.915 36.8961C32.991 37.3151 33.21 37.5911 33.656 37.5911C34.103 37.5911 34.397 37.3151 34.588 36.9541L35.367 37.7041C35.015 38.3311 34.331 38.6451 33.638 38.6451C32.61 38.6471 32.002 38.0771 31.812 37.2681Z" fill="black"/>
<path d="M37.531 38.552H36.362V32.002H37.531V34.103C37.74 33.875 38.073 33.694 38.51 33.694C39.47 33.694 40.069 34.35 40.069 35.32V38.551H38.89V35.471C38.89 35.025 38.661 34.767 38.215 34.767C37.816 34.767 37.53 35.024 37.53 35.471V38.552H37.531Z" fill="black"/>
<path d="M43.222 35.8041C43.906 36.0601 44.41 36.3361 44.41 37.2301C44.41 38.0571 43.735 38.6471 42.747 38.6471C41.863 38.6471 41.207 38.2571 40.932 37.6401L41.768 36.9461C42.006 37.3361 42.3 37.5931 42.766 37.5931C43.013 37.5931 43.213 37.4881 43.213 37.2601C43.213 36.9931 43.051 36.9271 42.643 36.7751L42.272 36.6421C41.398 36.3181 41.113 35.8911 41.113 35.1591C41.113 34.3231 41.806 33.6951 42.758 33.6951C43.899 33.6951 44.393 34.2851 44.393 35.1781C44.393 35.2531 44.393 35.3291 44.383 35.4061H43.214C43.224 35.3591 43.224 35.3021 43.224 35.2641C43.224 34.8261 42.977 34.7311 42.739 34.7311C42.435 34.7311 42.283 34.9401 42.283 35.1491C42.283 35.3961 42.482 35.5301 42.872 35.6721L43.222 35.8041Z" fill="black"/>
<path d="M45.416 37.2681C45.34 36.9551 45.32 36.6881 45.32 36.1651C45.32 35.6511 45.34 35.3751 45.416 35.0531C45.605 34.2541 46.224 33.6941 47.203 33.6941C48.115 33.6941 48.752 34.0841 48.942 34.9671C48.98 35.1571 49 35.3581 49 35.5851V35.7281H47.85V35.6521C47.85 35.5191 47.85 35.4341 47.84 35.3581C47.783 34.9391 47.565 34.7301 47.175 34.7301C46.766 34.7301 46.585 34.9771 46.519 35.3861C46.491 35.5571 46.491 35.8901 46.491 36.1651C46.491 36.4501 46.491 36.7261 46.519 36.8961C46.595 37.3151 46.814 37.5911 47.26 37.5911C47.707 37.5911 48.001 37.3151 48.192 36.9541L48.971 37.7041C48.619 38.3311 47.935 38.6451 47.242 38.6451C46.214 38.6471 45.605 38.0771 45.416 37.2681Z" fill="black"/>
<path d="M51.088 38.552H49.919V32.002H51.088V34.103C51.297 33.875 51.63 33.694 52.067 33.694C53.027 33.694 53.626 34.35 53.626 35.32V38.551H52.447V35.471C52.447 35.025 52.218 34.767 51.772 34.767C51.373 34.767 51.087 35.024 51.087 35.471V38.552H51.088Z" fill="black"/>
<path d="M57.415 38.0951C57.158 38.4661 56.749 38.6461 56.312 38.6461C55.351 38.6461 54.772 37.9901 54.772 37.0111V33.7981H55.941V36.8871C55.941 37.3051 56.16 37.5811 56.606 37.5811C57.015 37.5811 57.3 37.3061 57.3 36.8871V33.7981H58.469V38.5511H57.481L57.415 38.0951Z" fill="black"/>
<path d="M60.92 37.354C60.986 37.468 61.12 37.525 61.301 37.525C61.444 37.525 61.538 37.496 61.605 37.477V38.533C61.472 38.561 61.253 38.58 61.083 38.58C60.446 38.58 59.989 38.295 59.8 37.849C59.714 37.64 59.676 37.383 59.676 37.126V32.002H60.855V37.097C60.853 37.192 60.873 37.278 60.92 37.354Z" fill="black"/>
<path d="M65.889 35.0719C65.946 35.3099 65.955 35.5289 65.955 35.8799C65.955 36.0889 65.955 36.3369 65.945 36.6219H63.388C63.388 36.7459 63.397 36.8509 63.416 36.9449C63.492 37.3539 63.739 37.5919 64.177 37.5919C64.519 37.5919 64.862 37.5059 65.147 37.0299L65.907 37.7619C65.479 38.3889 64.843 38.6459 64.158 38.6459C63.141 38.6459 62.504 38.0659 62.304 37.2679C62.228 36.9549 62.218 36.6879 62.218 36.1649C62.218 35.6509 62.228 35.3859 62.304 35.0709C62.503 34.2539 63.141 33.6929 64.119 33.6929C65.081 33.6939 65.699 34.2639 65.889 35.0719ZM63.418 35.3579C63.398 35.4429 63.39 35.5569 63.39 35.6899H64.796C64.796 35.5089 64.787 35.4149 64.777 35.3579C64.72 34.9669 64.51 34.7299 64.102 34.7299C63.683 34.7299 63.484 34.9589 63.418 35.3579Z" fill="black"/>
<path d="M70.495 34.825V38.551H69.326V34.825H68.794V33.798H69.326V33.399C69.326 32.467 69.896 31.907 70.733 31.907C71.208 31.907 71.493 32.011 71.759 32.173L71.388 33.114C71.245 33.029 71.103 32.991 70.904 32.991C70.667 32.991 70.495 33.162 70.495 33.457V33.799H71.436V34.826H70.495V34.825Z" fill="black"/>
<path d="M74.942 38.095C74.685 38.466 74.276 38.646 73.839 38.646C72.878 38.646 72.299 37.99 72.299 37.011V33.798H73.468V36.887C73.468 37.305 73.687 37.581 74.133 37.581C74.542 37.581 74.827 37.306 74.827 36.887V33.798H75.996V38.551H75.008L74.942 38.095ZM72.585 32.658C72.585 32.306 72.87 32.012 73.25 32.012C73.611 32.012 73.915 32.307 73.915 32.658C73.915 33.009 73.611 33.323 73.25 33.323C72.87 33.323 72.585 33.01 72.585 32.658ZM74.4 32.658C74.4 32.306 74.685 32.012 75.065 32.012C75.426 32.012 75.731 32.307 75.731 32.658C75.731 33.009 75.426 33.323 75.065 33.323C74.685 33.323 74.4 33.01 74.4 32.658Z" fill="black"/>
<path d="M78.419 38.5519H77.25V33.7989H78.238L78.304 34.2649C78.551 33.8559 78.912 33.7139 79.302 33.7139C79.388 33.7139 79.54 33.7139 79.721 33.7429V34.8929C79.426 34.8349 79.226 34.8349 79.103 34.8349C78.704 34.8349 78.418 35.0719 78.418 35.5479V38.5519H78.419Z" fill="black"/>
<path d="M83.33 33.466H81.8V32.344H86.068V33.465H84.547V38.551H83.33V33.466Z" fill="black"/>
<path d="M89.763 35.0719C89.82 35.3099 89.829 35.5289 89.829 35.8799C89.829 36.0889 89.829 36.3369 89.819 36.6219H87.262C87.262 36.7459 87.271 36.8509 87.29 36.9449C87.366 37.3539 87.613 37.5919 88.051 37.5919C88.393 37.5919 88.736 37.5059 89.021 37.0299L89.781 37.7619C89.353 38.3889 88.717 38.6459 88.032 38.6459C87.015 38.6459 86.378 38.0659 86.178 37.2679C86.102 36.9549 86.092 36.6879 86.092 36.1649C86.092 35.6509 86.102 35.3859 86.178 35.0709C86.377 34.2539 87.015 33.6929 87.993 33.6929C88.955 33.6939 89.573 34.2639 89.763 35.0719ZM87.292 35.3579C87.272 35.4429 87.264 35.5569 87.264 35.6899H88.67C88.67 35.5089 88.661 35.4149 88.651 35.3579C88.594 34.9669 88.384 34.7299 87.976 34.7299C87.557 34.7299 87.358 34.9589 87.292 35.3579Z" fill="black"/>
<path d="M90.835 37.2681C90.759 36.9551 90.739 36.6881 90.739 36.1651C90.739 35.6511 90.759 35.3751 90.835 35.0531C91.024 34.2541 91.643 33.6941 92.622 33.6941C93.534 33.6941 94.171 34.0841 94.361 34.9671C94.399 35.1571 94.419 35.3581 94.419 35.5851V35.7281H93.269V35.6521C93.269 35.5191 93.269 35.4341 93.259 35.3581C93.202 34.9391 92.984 34.7301 92.594 34.7301C92.185 34.7301 92.004 34.9771 91.938 35.3861C91.91 35.5571 91.91 35.8901 91.91 36.1651C91.91 36.4501 91.91 36.7261 91.938 36.8961C92.014 37.3151 92.233 37.5911 92.679 37.5911C93.126 37.5911 93.42 37.3151 93.611 36.9541L94.39 37.7041C94.038 38.3311 93.354 38.6451 92.661 38.6451C91.633 38.6471 91.024 38.0771 90.835 37.2681Z" fill="black"/>
<path d="M96.553 38.552H95.384V32.002H96.553V34.103C96.762 33.875 97.095 33.694 97.532 33.694C98.492 33.694 99.091 34.35 99.091 35.32V38.551H97.912V35.471C97.912 35.025 97.683 34.767 97.237 34.767C96.838 34.767 96.552 35.024 96.552 35.471V38.552H96.553Z" fill="black"/>
<path d="M101.445 38.5521H100.276V33.7991H101.274L101.331 34.2271C101.578 33.8751 101.977 33.6951 102.425 33.6951C103.385 33.6951 103.984 34.3511 103.984 35.3211V38.5521H102.805V35.4721C102.805 35.0261 102.576 34.7681 102.13 34.7681C101.731 34.7681 101.445 35.0251 101.445 35.4721V38.5521Z" fill="black"/>
<path d="M105.074 32.61C105.074 32.23 105.387 31.907 105.796 31.907C106.195 31.907 106.519 32.23 106.519 32.61C106.519 32.991 106.196 33.333 105.796 33.333C105.387 33.333 105.074 32.991 105.074 32.61ZM105.217 38.552V33.799H106.396V38.552H105.217Z" fill="black"/>
<path d="M108.855 36.708V38.552H107.668V32.002H108.856V35.614H108.952C109.855 35.614 110.169 34.892 110.169 34.084C110.169 33.989 110.169 33.894 110.159 33.799H111.357C111.366 33.913 111.376 34.028 111.376 34.142C111.376 35.054 111.034 35.881 110.33 36.337L111.727 38.552H110.301L109.217 36.698C109.141 36.708 109.056 36.708 108.97 36.708H108.855Z" fill="black"/>
<path d="M24.005 47.8959C23.748 48.2659 23.339 48.4459 22.902 48.4459C21.941 48.4459 21.362 47.7909 21.362 46.8119V43.5989H22.531V46.6879C22.531 47.1069 22.75 47.3819 23.196 47.3819C23.605 47.3819 23.89 47.1069 23.89 46.6879V43.5989H25.059V48.3509H24.071L24.005 47.8959Z" fill="black"/>
<path d="M27.452 48.3521H26.283V43.6001H27.281L27.338 44.0281C27.585 43.6761 27.984 43.4961 28.432 43.4961C29.392 43.4961 29.991 44.1511 29.991 45.1211V48.3531H28.812V45.2731C28.812 44.8271 28.583 44.5701 28.137 44.5701C27.738 44.5701 27.452 44.8261 27.452 45.2731V48.3521Z" fill="black"/>
<path d="M33.923 47.981C33.666 48.248 33.295 48.446 32.744 48.446C31.889 48.446 31.27 47.886 31.09 47.058C31.024 46.735 31.004 46.488 31.004 45.966C31.004 45.442 31.024 45.167 31.09 44.844C31.251 44.017 31.945 43.494 32.791 43.494C33.229 43.494 33.552 43.617 33.79 43.807V41.801H34.959V48.35H33.98L33.923 47.981ZM33.742 46.726C33.79 46.509 33.79 46.251 33.79 45.957C33.79 45.662 33.79 45.415 33.742 45.186C33.656 44.778 33.39 44.521 32.971 44.521C32.553 44.521 32.287 44.778 32.211 45.186C32.173 45.376 32.173 45.662 32.173 45.957C32.173 46.251 32.173 46.537 32.211 46.726C32.287 47.136 32.553 47.402 32.971 47.402C33.39 47.402 33.656 47.135 33.742 46.726Z" fill="black"/>
<path d="M38.994 48.352L38.091 44.455C37.977 43.961 37.91 43.286 37.91 42.829V42.144H39.127V42.829C39.127 43.162 39.165 43.742 39.241 44.17L39.402 45.044C39.536 45.748 39.687 46.403 39.697 46.746H39.735C39.773 46.347 39.906 45.814 40.01 45.425L40.495 43.533H41.512L42.006 45.282C42.158 45.804 42.311 46.432 42.349 46.812H42.387C42.397 46.45 42.539 45.804 42.653 45.12L42.805 44.17C42.871 43.742 42.909 43.162 42.909 42.829V42.144H44.126V42.829C44.126 43.286 44.06 43.951 43.955 44.455L43.109 48.352H41.778L41.226 46.394C41.065 45.813 41.017 45.453 40.998 45.205H40.96C40.94 45.462 40.894 45.813 40.731 46.403L40.209 48.352H38.994Z" fill="black"/>
<path d="M45.008 42.411C45.008 42.031 45.321 41.708 45.73 41.708C46.129 41.708 46.453 42.031 46.453 42.411C46.453 42.791 46.13 43.134 45.73 43.134C45.321 43.134 45.008 42.791 45.008 42.411ZM45.15 48.352V43.6H46.329V48.352H45.15Z" fill="black"/>
<path d="M48.722 48.3519H47.553V43.5999H48.541L48.607 44.0659C48.854 43.6559 49.215 43.5139 49.605 43.5139C49.691 43.5139 49.843 43.5139 50.024 43.5429V44.6929C49.729 44.6359 49.529 44.6359 49.406 44.6359C49.007 44.6359 48.721 44.8729 48.721 45.3489V48.3519H48.722Z" fill="black"/>
<path d="M52.399 48.4279C51.601 48.4279 51.021 47.8759 51.021 46.9349V44.6249H50.489V43.5989H51.021V42.3059H52.19V43.5989H53.331V44.6249H52.19V46.9059C52.19 47.2009 52.362 47.3719 52.618 47.3719C52.799 47.3719 52.961 47.3149 53.103 47.1829L53.445 48.1329C53.208 48.3239 52.894 48.4279 52.399 48.4279Z" fill="black"/>
<path d="M56.209 45.6049C56.893 45.8619 57.397 46.1379 57.397 47.0309C57.397 47.8589 56.722 48.4469 55.734 48.4469C54.85 48.4469 54.194 48.0579 53.919 47.4389L54.755 46.7459C54.993 47.1359 55.287 47.3919 55.753 47.3919C56 47.3919 56.2 47.2879 56.2 47.0589C56.2 46.7939 56.038 46.7259 55.63 46.5749L55.259 46.4409C54.385 46.1169 54.1 45.6899 54.1 44.9589C54.1 44.1219 54.793 43.4949 55.745 43.4949C56.886 43.4949 57.38 44.0839 57.38 44.9769C57.38 45.0539 57.38 45.1299 57.37 45.2059H56.201C56.211 45.1589 56.211 45.1019 56.211 45.0639C56.211 44.6259 55.964 44.5309 55.726 44.5309C55.422 44.5309 55.27 44.7399 55.27 44.9489C55.27 45.1959 55.469 45.3289 55.859 45.4709L56.209 45.6049Z" fill="black"/>
<path d="M58.402 47.0689C58.326 46.7549 58.306 46.4879 58.306 45.9659C58.306 45.4519 58.326 45.1769 58.402 44.8539C58.591 44.0549 59.21 43.4949 60.189 43.4949C61.101 43.4949 61.738 43.8839 61.928 44.7679C61.966 44.9589 61.986 45.1579 61.986 45.3869V45.5299H60.836V45.4539C60.836 45.3209 60.836 45.2349 60.826 45.1589C60.769 44.7409 60.551 44.5319 60.161 44.5319C59.752 44.5319 59.571 44.7799 59.505 45.1869C59.477 45.3589 59.477 45.6909 59.477 45.9679C59.477 46.2529 59.477 46.5289 59.505 46.6989C59.581 47.1179 59.8 47.3929 60.246 47.3929C60.693 47.3929 60.987 47.1179 61.178 46.7559L61.957 47.5069C61.605 48.1339 60.921 48.4469 60.228 48.4469C59.2 48.4469 58.592 47.8759 58.402 47.0689Z" fill="black"/>
<path d="M64.074 48.352H62.905V41.803H64.074V43.904C64.283 43.676 64.616 43.496 65.053 43.496C66.013 43.496 66.612 44.151 66.612 45.121V48.353H65.433V45.273C65.433 44.827 65.204 44.57 64.758 44.57C64.359 44.57 64.073 44.826 64.073 45.273V48.352H64.074Z" fill="black"/>
<path d="M69.157 48.3899C68.834 48.3899 68.681 48.3699 68.481 48.3129C67.882 48.1419 67.531 47.6479 67.531 46.9539C67.531 46.2309 67.969 45.8229 68.481 45.6699C68.681 45.6139 68.9 45.5939 69.223 45.5939C69.508 45.5939 69.745 45.6409 69.926 45.7179V45.1379C69.926 44.7569 69.689 44.5289 69.318 44.5289C68.995 44.5289 68.748 44.6819 68.557 45.1279L67.645 44.5289C68.006 43.8159 68.481 43.4929 69.375 43.4929C70.478 43.4929 71.104 44.2339 71.104 45.0899V48.3499H70.172L70.125 48.0169C70.067 48.0749 70.011 48.1219 69.963 48.1599C69.803 48.3039 69.499 48.3899 69.157 48.3899ZM69.727 47.3919C69.888 47.3539 70.021 47.1919 70.021 46.9739C70.021 46.7449 69.898 46.5829 69.736 46.5359C69.632 46.5079 69.47 46.5079 69.328 46.5079C69.186 46.5079 69.033 46.5079 68.929 46.5359C68.748 46.5829 68.644 46.7449 68.644 46.9739C68.644 47.1919 68.767 47.3539 68.929 47.3919C69.043 47.4199 69.196 47.4199 69.328 47.4199C69.48 47.4209 69.623 47.4209 69.727 47.3919Z" fill="black"/>
<path d="M73.697 44.626V48.352H72.528V44.626H71.996V43.6H72.528V43.201C72.528 42.269 73.098 41.709 73.935 41.709C74.41 41.709 74.695 41.813 74.961 41.975L74.59 42.916C74.447 42.83 74.305 42.792 74.106 42.792C73.868 42.792 73.697 42.964 73.697 43.258V43.601H74.638V44.627H73.697V44.626Z" fill="black"/>
<path d="M77.071 48.4279C76.272 48.4279 75.692 47.8759 75.692 46.9349V44.6249H75.16V43.5989H75.692V42.3059H76.861V43.5989H78.002V44.6249H76.861V46.9059C76.861 47.2009 77.033 47.3719 77.289 47.3719C77.47 47.3719 77.632 47.3149 77.774 47.1829L78.116 48.1329C77.879 48.3239 77.565 48.4279 77.071 48.4279Z" fill="black"/>
<path d="M81.04 48.352V42.144H83.026C84.148 42.144 84.919 42.829 84.919 43.95C84.919 44.388 84.729 44.872 84.225 45.224C84.786 45.577 84.996 46.079 84.996 46.565C84.996 47.677 84.264 48.352 83.17 48.352H81.04ZM82.257 43.238V44.788H82.951C83.388 44.788 83.711 44.455 83.711 44.008C83.711 43.561 83.388 43.238 82.951 43.238H82.257ZM82.257 45.814V47.24H83.094C83.502 47.24 83.769 46.926 83.769 46.509C83.769 46.109 83.502 45.814 83.094 45.814H82.257Z" fill="black"/>
<path d="M89.515 44.8729C89.572 45.1109 89.581 45.3289 89.581 45.6819C89.581 45.8909 89.581 46.1379 89.571 46.4229H87.014C87.014 46.5469 87.023 46.6519 87.042 46.7469C87.118 47.1549 87.365 47.3929 87.803 47.3929C88.145 47.3929 88.488 47.3069 88.773 46.8319L89.533 47.5629C89.105 48.1909 88.469 48.4459 87.784 48.4459C86.767 48.4459 86.13 47.8669 85.93 47.0689C85.854 46.7549 85.844 46.4879 85.844 45.9659C85.844 45.4519 85.854 45.1849 85.93 44.8719C86.129 44.0539 86.767 43.4939 87.745 43.4939C88.707 43.4949 89.325 44.0649 89.515 44.8729ZM87.044 45.1579C87.024 45.2439 87.016 45.3579 87.016 45.4909H88.422C88.422 45.3099 88.413 45.2159 88.403 45.1579C88.346 44.7679 88.136 44.5309 87.728 44.5309C87.309 44.5309 87.11 44.7589 87.044 45.1579Z" fill="black"/>
<path d="M91.775 48.3519H90.606V43.5999H91.594L91.66 44.0659C91.907 43.6559 92.268 43.5139 92.658 43.5139C92.744 43.5139 92.896 43.5139 93.077 43.5429V44.6929C92.782 44.6359 92.582 44.6359 92.459 44.6359C92.06 44.6359 91.774 44.8729 91.774 45.3489V48.3519H91.775Z" fill="black"/>
<path d="M95.099 47.154C95.165 47.268 95.299 47.325 95.48 47.325C95.623 47.325 95.717 47.296 95.784 47.278V48.334C95.651 48.362 95.432 48.38 95.262 48.38C94.625 48.38 94.168 48.095 93.979 47.649C93.893 47.439 93.855 47.183 93.855 46.926V41.802H95.034V46.898C95.033 46.992 95.052 47.079 95.099 47.154Z" fill="black"/>
<path d="M96.468 42.411C96.468 42.031 96.781 41.708 97.19 41.708C97.589 41.708 97.913 42.031 97.913 42.411C97.913 42.791 97.59 43.134 97.19 43.134C96.781 43.134 96.468 42.791 96.468 42.411ZM96.61 48.352V43.6H97.789V48.352H96.61Z" fill="black"/>
<path d="M100.182 48.3521H99.013V43.6001H100.011L100.068 44.0281C100.315 43.6761 100.714 43.4961 101.162 43.4961C102.122 43.4961 102.721 44.1511 102.721 45.1211V48.3531H101.542V45.2731C101.542 44.8271 101.313 44.5701 100.867 44.5701C100.468 44.5701 100.182 44.8261 100.182 45.2731V48.3521Z" fill="black"/>
<path d="M24.045 59.519H24.984V62.051C24.984 62.858 24.948 63.184 24.829 63.48C24.593 64.08 24.037 64.427 23.216 64.427C22.388 64.427 21.832 64.08 21.603 63.487C21.485 63.184 21.441 62.858 21.441 62.051V59.519H22.38V62.096C22.38 62.702 22.388 62.828 22.424 62.984C22.506 63.309 22.742 63.546 23.216 63.546C23.69 63.546 23.919 63.317 23.993 62.991C24.03 62.834 24.045 62.701 24.045 62.095V59.519Z" fill="#86BC25"/>
<path d="M26.835 64.352H25.925V60.652H26.701L26.746 60.985C26.938 60.712 27.249 60.571 27.597 60.571C28.345 60.571 28.811 61.08 28.811 61.836V64.352H27.893V61.955C27.893 61.607 27.715 61.407 27.368 61.407C27.057 61.407 26.836 61.607 26.836 61.955V64.352H26.835Z" fill="#86BC25"/>
<path d="M29.58 59.7269C29.58 59.4319 29.824 59.1799 30.142 59.1799C30.453 59.1799 30.704 59.4319 30.704 59.7269C30.704 60.0229 30.452 60.2899 30.142 60.2899C29.824 60.2899 29.58 60.0229 29.58 59.7269ZM29.691 64.3519V60.6519H30.608V64.3519H29.691Z" fill="#86BC25"/>
<path d="M32.422 64.3521C32.141 63.7821 31.793 62.9241 31.578 62.3761C31.423 61.9831 31.334 61.5181 31.334 61.1631V60.6521H32.237V61.1631C32.237 61.4211 32.303 61.8141 32.422 62.1691C32.533 62.5091 32.77 63.0131 32.873 63.5901H32.903C33.007 63.0131 33.251 62.5091 33.361 62.1691C33.465 61.8581 33.539 61.4211 33.539 61.1631V60.6521H34.442V61.1631C34.442 61.5181 34.361 61.9991 34.213 62.3761C33.998 62.9231 33.628 63.7821 33.355 64.3521H32.422Z" fill="#86BC25"/>
<path d="M37.868 61.6431C37.913 61.8291 37.92 61.9991 37.92 62.2731C37.92 62.4351 37.92 62.6271 37.913 62.8501H35.922C35.922 62.9461 35.93 63.0281 35.944 63.1001C36.004 63.4191 36.196 63.6041 36.536 63.6041C36.803 63.6041 37.069 63.5371 37.291 63.1661L37.883 63.7371C37.55 64.2251 37.055 64.4251 36.522 64.4251C35.73 64.4251 35.234 63.9741 35.079 63.3521C35.02 63.1081 35.013 62.9011 35.013 62.4941C35.013 62.0951 35.021 61.8871 35.079 61.6421C35.234 61.0071 35.73 60.5701 36.493 60.5701C37.239 60.5711 37.72 61.0141 37.868 61.6431ZM35.944 61.8661C35.929 61.9321 35.922 62.0211 35.922 62.1251H37.018C37.018 61.9841 37.01 61.9101 37.003 61.8661C36.958 61.5621 36.795 61.3781 36.478 61.3781C36.151 61.3781 35.996 61.5541 35.944 61.8661Z" fill="#86BC25"/>
<path d="M39.586 64.3519H38.676V60.6519H39.446L39.498 61.0139C39.69 60.6959 39.972 60.5859 40.274 60.5859C40.341 60.5859 40.46 60.5859 40.6 60.6069V61.5029C40.371 61.4589 40.215 61.4589 40.119 61.4589C39.808 61.4589 39.587 61.6429 39.587 62.0129V64.3519H39.586Z" fill="#86BC25"/>
<path d="M42.693 62.213C43.226 62.413 43.618 62.628 43.618 63.324C43.618 63.967 43.093 64.426 42.323 64.426C41.635 64.426 41.125 64.123 40.91 63.642L41.561 63.1C41.746 63.404 41.975 63.604 42.337 63.604C42.529 63.604 42.686 63.522 42.686 63.345C42.686 63.137 42.56 63.086 42.242 62.968L41.953 62.865C41.272 62.613 41.051 62.28 41.051 61.711C41.051 61.059 41.591 60.571 42.331 60.571C43.219 60.571 43.603 61.029 43.603 61.725C43.603 61.784 43.603 61.843 43.596 61.903H42.686C42.693 61.866 42.693 61.821 42.693 61.792C42.693 61.451 42.501 61.378 42.316 61.378C42.079 61.378 41.961 61.54 41.961 61.703C41.961 61.895 42.116 61.999 42.42 62.11L42.693 62.213Z" fill="#86BC25"/>
<path d="M44.269 59.7269C44.269 59.4319 44.513 59.1799 44.831 59.1799C45.142 59.1799 45.393 59.4319 45.393 59.7269C45.393 60.0229 45.141 60.2899 44.831 60.2899C44.513 60.2899 44.269 60.0229 44.269 59.7269ZM44.381 64.3519V60.6519H45.298V64.3519H44.381Z" fill="#86BC25"/>
<path d="M47.436 64.412C46.815 64.412 46.364 63.982 46.364 63.25V61.451H45.949V60.653H46.364V59.646H47.274V60.653H48.162V61.451H47.274V63.227C47.274 63.457 47.407 63.59 47.607 63.59C47.748 63.59 47.874 63.546 47.984 63.443L48.251 64.183C48.066 64.33 47.822 64.412 47.436 64.412Z" fill="#86BC25"/>
<path d="M48.828 65.7291V64.8921C48.924 64.9071 49.02 64.9071 49.153 64.9071C49.375 64.9071 49.515 64.8481 49.664 64.5221L49.768 64.2931C49.443 63.6051 49.073 62.8211 48.872 62.3401C48.694 61.9181 48.643 61.5481 48.643 61.1781V60.6531H49.583V61.1781C49.583 61.4361 49.627 61.7401 49.745 62.0591C49.871 62.4061 50.123 62.9031 50.219 63.4721H50.249C50.359 62.8581 50.611 62.3321 50.715 62.0591C50.841 61.7331 50.878 61.4361 50.878 61.1781V60.6531H51.811V61.1781C51.811 61.5481 51.751 61.9471 51.588 62.3401C51.352 62.9171 50.841 64.1311 50.485 64.8551C50.212 65.4171 49.885 65.7731 49.249 65.7731C49.161 65.7731 49.056 65.7731 48.828 65.7291Z" fill="#86BC25"/>
<path d="M53.887 63.353C53.828 63.109 53.821 62.902 53.821 62.495C53.821 62.096 53.829 61.888 53.887 61.643C54.035 61.014 54.598 60.571 55.353 60.571C56.108 60.571 56.648 61.014 56.803 61.643C56.863 61.888 56.869 62.096 56.869 62.495C56.869 62.902 56.862 63.109 56.803 63.353C56.656 63.976 56.085 64.426 55.323 64.426C54.576 64.426 54.043 63.975 53.887 63.353ZM55.908 63.161C55.96 62.939 55.96 62.717 55.96 62.495C55.96 62.28 55.96 62.044 55.908 61.821C55.849 61.584 55.664 61.378 55.339 61.378C55.021 61.378 54.82 61.577 54.769 61.843C54.732 62.044 54.725 62.28 54.725 62.495C54.725 62.717 54.732 62.939 54.769 63.138C54.821 63.405 55.021 63.605 55.339 63.605C55.664 63.605 55.849 63.397 55.908 63.161Z" fill="#86BC25"/>
<path d="M58.742 61.45V64.351H57.832V61.45H57.418V60.652H57.832V60.341C57.832 59.615 58.276 59.179 58.928 59.179C59.297 59.179 59.52 59.26 59.727 59.386L59.438 60.118C59.328 60.052 59.216 60.0219 59.061 60.0219C58.876 60.0219 58.743 60.1539 58.743 60.3839V60.651H59.475V61.449H58.742V61.45Z" fill="#86BC25"/>
<path d="M62.25 64.352H61.303V63.819C61.303 63.465 61.399 62.917 61.532 62.532L62.575 59.519H63.692L64.728 62.539C64.862 62.917 64.957 63.465 64.957 63.82V64.353H64.018V63.82C64.018 63.687 64.003 63.495 63.973 63.325H62.293C62.264 63.495 62.249 63.687 62.249 63.82V64.352H62.25ZM63.123 60.519L62.523 62.472H63.729L63.123 60.519Z" fill="#86BC25"/>
<path d="M66.564 64.175V65.751H65.654V60.652H66.416L66.461 60.948C66.66 60.726 66.956 60.571 67.393 60.571C68.059 60.571 68.533 61.008 68.666 61.651C68.718 61.91 68.732 62.088 68.732 62.495C68.732 62.902 68.717 63.116 68.666 63.368C68.532 64.012 68.007 64.427 67.334 64.427C67.001 64.426 66.749 64.33 66.564 64.175ZM66.593 61.887C66.564 62.035 66.564 62.273 66.564 62.494C66.564 62.723 66.564 62.938 66.593 63.086C66.659 63.404 66.866 63.611 67.193 63.611C67.518 63.611 67.733 63.403 67.793 63.086C67.822 62.938 67.829 62.724 67.829 62.494C67.829 62.272 67.822 62.035 67.793 61.887C67.733 61.57 67.519 61.369 67.193 61.369C66.867 61.37 66.66 61.57 66.593 61.887Z" fill="#86BC25"/>
<path d="M70.42 64.175V65.751H69.51V60.652H70.272L70.317 60.948C70.516 60.726 70.812 60.571 71.249 60.571C71.915 60.571 72.389 61.008 72.522 61.651C72.574 61.91 72.588 62.088 72.588 62.495C72.588 62.902 72.573 63.116 72.522 63.368C72.388 64.012 71.863 64.427 71.19 64.427C70.856 64.426 70.604 64.33 70.42 64.175ZM70.449 61.887C70.42 62.035 70.42 62.273 70.42 62.494C70.42 62.723 70.42 62.938 70.449 63.086C70.515 63.404 70.722 63.611 71.049 63.611C71.374 63.611 71.589 63.403 71.649 63.086C71.678 62.938 71.685 62.724 71.685 62.494C71.685 62.272 71.678 62.035 71.649 61.887C71.589 61.57 71.375 61.369 71.049 61.369C70.722 61.37 70.515 61.57 70.449 61.887Z" fill="#86BC25"/>
<path d="M74.319 63.4199C74.371 63.5089 74.474 63.5539 74.615 63.5539C74.726 63.5539 74.801 63.5309 74.852 63.5169V64.3379C74.748 64.3599 74.578 64.3749 74.445 64.3749C73.949 64.3749 73.593 64.1519 73.446 63.8049C73.38 63.6429 73.349 63.4429 73.349 63.2429V59.2539H74.267V63.2209C74.267 63.2939 74.282 63.3609 74.319 63.4199Z" fill="#86BC25"/>
<path d="M75.31 59.7269C75.31 59.4319 75.554 59.1799 75.872 59.1799C76.183 59.1799 76.434 59.4319 76.434 59.7269C76.434 60.0229 76.182 60.2899 75.872 60.2899C75.554 60.2899 75.31 60.0229 75.31 59.7269ZM75.422 64.3519V60.6519H76.339V64.3519H75.422Z" fill="#86BC25"/>
<path d="M79.972 61.6431C80.017 61.8291 80.024 61.9991 80.024 62.2731C80.024 62.4351 80.024 62.6271 80.017 62.8501H78.026C78.026 62.9461 78.034 63.0281 78.048 63.1001C78.108 63.4191 78.3 63.6041 78.64 63.6041C78.907 63.6041 79.173 63.5371 79.395 63.1661L79.987 63.7371C79.654 64.2251 79.159 64.4251 78.626 64.4251C77.834 64.4251 77.338 63.9741 77.183 63.3521C77.124 63.1081 77.117 62.9011 77.117 62.4941C77.117 62.0951 77.125 61.8871 77.183 61.6421C77.338 61.0071 77.834 60.5701 78.597 60.5701C79.343 60.5711 79.825 61.0141 79.972 61.6431ZM78.049 61.8661C78.034 61.9321 78.027 62.0211 78.027 62.1251H79.123C79.123 61.9841 79.115 61.9101 79.108 61.8661C79.063 61.5621 78.9 61.3781 78.583 61.3781C78.256 61.3781 78.1 61.5541 78.049 61.8661Z" fill="#86BC25"/>
<path d="M82.918 64.0629C82.718 64.2709 82.429 64.4259 82 64.4259C81.334 64.4259 80.853 63.9899 80.712 63.3449C80.66 63.0939 80.646 62.9019 80.646 62.4939C80.646 62.0859 80.661 61.8719 80.712 61.6199C80.838 60.9749 81.378 60.5699 82.037 60.5699C82.377 60.5699 82.629 60.6659 82.814 60.8139V59.2539H83.724V64.3519H82.961L82.918 64.0629ZM82.777 63.0869C82.814 62.9169 82.814 62.7169 82.814 62.4869C82.814 62.2569 82.814 62.0649 82.777 61.8869C82.71 61.5699 82.503 61.3689 82.177 61.3689C81.851 61.3689 81.644 61.5689 81.585 61.8869C81.555 62.0349 81.555 62.2569 81.555 62.4869C81.555 62.7169 81.555 62.9389 81.585 63.0869C81.644 63.4049 81.851 63.6119 82.177 63.6119C82.503 63.6119 82.71 63.4049 82.777 63.0869Z" fill="#86BC25"/>
<path d="M85.885 63.457L86.617 62.857C86.846 63.338 87.165 63.545 87.542 63.545C87.89 63.545 88.097 63.367 88.097 63.057C88.097 62.79 87.883 62.606 87.631 62.495L87.12 62.266C86.425 61.947 86.106 61.534 86.106 60.889C86.106 60.039 86.706 59.447 87.579 59.447C88.378 59.447 89.066 59.884 89.066 60.993C89.066 61.059 89.066 61.126 89.059 61.201H88.112C88.119 61.135 88.119 61.067 88.119 61.001C88.119 60.579 87.964 60.312 87.564 60.312C87.231 60.312 87.045 60.513 87.045 60.823C87.045 61.046 87.127 61.253 87.475 61.415L88.089 61.705C88.784 62.03 89.059 62.452 89.059 63C89.059 63.895 88.452 64.428 87.467 64.428C86.713 64.426 86.18 64.027 85.885 63.457Z" fill="#86BC25"/>
<path d="M89.792 63.353C89.732 63.109 89.718 62.902 89.718 62.495C89.718 62.096 89.733 61.88 89.792 61.629C89.939 61.008 90.421 60.571 91.184 60.571C91.894 60.571 92.39 60.874 92.538 61.562C92.568 61.71 92.583 61.866 92.583 62.043V62.153H91.687V62.094C91.687 61.99 91.687 61.923 91.679 61.865C91.635 61.539 91.465 61.377 91.161 61.377C90.843 61.377 90.702 61.569 90.65 61.887C90.628 62.021 90.628 62.279 90.628 62.494C90.628 62.716 90.628 62.931 90.65 63.063C90.71 63.39 90.879 63.604 91.227 63.604C91.575 63.604 91.804 63.39 91.953 63.108L92.559 63.693C92.286 64.181 91.752 64.425 91.212 64.425C90.413 64.426 89.939 63.982 89.792 63.353Z" fill="#86BC25"/>
<path d="M93.143 59.7269C93.143 59.4319 93.387 59.1799 93.705 59.1799C94.016 59.1799 94.267 59.4319 94.267 59.7269C94.267 60.0229 94.015 60.2899 93.705 60.2899C93.387 60.2899 93.143 60.0229 93.143 59.7269ZM93.255 64.3519V60.6519H94.172V64.3519H93.255Z" fill="#86BC25"/>
<path d="M97.805 61.6431C97.85 61.8291 97.857 61.9991 97.857 62.2731C97.857 62.4351 97.857 62.6271 97.85 62.8501H95.859C95.859 62.9461 95.867 63.0281 95.881 63.1001C95.941 63.4191 96.133 63.6041 96.473 63.6041C96.74 63.6041 97.006 63.5371 97.228 63.1661L97.82 63.7371C97.487 64.2251 96.992 64.4251 96.459 64.4251C95.667 64.4251 95.171 63.9741 95.016 63.3521C94.957 63.1081 94.95 62.9011 94.95 62.4941C94.95 62.0951 94.958 61.8871 95.016 61.6421C95.171 61.0071 95.667 60.5701 96.43 60.5701C97.176 60.5711 97.658 61.0141 97.805 61.6431ZM95.882 61.8661C95.867 61.9321 95.86 62.0211 95.86 62.1251H96.956C96.956 61.9841 96.948 61.9101 96.941 61.8661C96.896 61.5621 96.733 61.3781 96.416 61.3781C96.089 61.3781 95.933 61.5541 95.882 61.8661Z" fill="#86BC25"/>
<path d="M99.522 64.352H98.612V60.652H99.388L99.433 60.985C99.625 60.712 99.936 60.571 100.284 60.571C101.032 60.571 101.498 61.08 101.498 61.836V64.352H100.58V61.955C100.58 61.607 100.402 61.407 100.055 61.407C99.744 61.407 99.523 61.607 99.523 61.955V64.352H99.522Z" fill="#86BC25"/>
<path d="M102.32 63.353C102.26 63.109 102.246 62.902 102.246 62.495C102.246 62.096 102.261 61.88 102.32 61.629C102.467 61.008 102.949 60.571 103.712 60.571C104.422 60.571 104.918 60.874 105.066 61.562C105.096 61.71 105.111 61.866 105.111 62.043V62.153H104.215V62.094C104.215 61.99 104.215 61.923 104.207 61.865C104.163 61.539 103.993 61.377 103.689 61.377C103.371 61.377 103.23 61.569 103.178 61.887C103.156 62.021 103.156 62.279 103.156 62.494C103.156 62.716 103.156 62.931 103.178 63.063C103.238 63.39 103.407 63.604 103.755 63.604C104.103 63.604 104.332 63.39 104.481 63.108L105.087 63.693C104.814 64.181 104.28 64.425 103.74 64.425C102.941 64.426 102.468 63.982 102.32 63.353Z" fill="#86BC25"/>
<path d="M108.543 61.6431C108.588 61.8291 108.595 61.9991 108.595 62.2731C108.595 62.4351 108.595 62.6271 108.588 62.8501H106.597C106.597 62.9461 106.605 63.0281 106.619 63.1001C106.679 63.4191 106.871 63.6041 107.211 63.6041C107.478 63.6041 107.744 63.5371 107.966 63.1661L108.558 63.7371C108.225 64.2251 107.73 64.4251 107.197 64.4251C106.405 64.4251 105.909 63.9741 105.754 63.3521C105.695 63.1081 105.688 62.9011 105.688 62.4941C105.688 62.0951 105.696 61.8871 105.754 61.6421C105.909 61.0071 106.405 60.5701 107.168 60.5701C107.914 60.5711 108.395 61.0141 108.543 61.6431ZM106.619 61.8661C106.604 61.9321 106.597 62.0211 106.597 62.1251H107.693C107.693 61.9841 107.685 61.9101 107.678 61.8661C107.633 61.5621 107.47 61.3781 107.153 61.3781C106.826 61.3781 106.671 61.5541 106.619 61.8661Z" fill="#86BC25"/>
<path d="M110.881 62.213C111.414 62.413 111.806 62.628 111.806 63.324C111.806 63.967 111.281 64.426 110.511 64.426C109.823 64.426 109.313 64.123 109.098 63.642L109.749 63.1C109.934 63.404 110.163 63.604 110.525 63.604C110.717 63.604 110.874 63.522 110.874 63.345C110.874 63.137 110.748 63.086 110.43 62.968L110.141 62.865C109.46 62.613 109.239 62.28 109.239 61.711C109.239 61.059 109.779 60.571 110.519 60.571C111.407 60.571 111.791 61.029 111.791 61.725C111.791 61.784 111.791 61.843 111.784 61.903H110.874C110.881 61.866 110.881 61.821 110.881 61.792C110.881 61.451 110.689 61.378 110.504 61.378C110.267 61.378 110.149 61.54 110.149 61.703C110.149 61.895 110.304 61.999 110.608 62.11L110.881 62.213Z" fill="#86BC25"/>
<path d="M58.658 5.81592H63.973V16.4459H58.658V5.81592Z" fill="#86BC25"/>
<path d="M69.288 16.446V21.76H63.973V16.446H69.288Z" fill="#86BC25"/>
<path d="M21.453 0.500977H26.768V5.81598H32.083V11.131H26.768V16.446H32.083V21.76H26.768C23.832 21.76 21.453 19.381 21.453 16.446C21.474 16.448 21.453 0.500977 21.453 0.500977Z" fill="#86BC25"/>
<path d="M37.398 5.81592H42.713V16.4459H48.028V5.81592H53.342V16.4459H58.657V21.7599H42.713C39.778 21.7599 37.398 19.3809 37.398 16.4459V5.81592Z" fill="#86BC25"/>
<path d="M5.50903 11.1309V21.7599H0.194031V11.1309H5.50903Z" fill="#86BC25"/>
<path d="M5.50903 0.500977V5.81598H0.194031V0.500977H5.50903Z" fill="#86BC25"/>
<path d="M5.50604 5.81594L10.821 5.81494C13.756 5.81494 16.138 8.19594 16.138 11.1309V21.7599H10.823V11.1309H5.50804L5.50604 5.81594Z" fill="#86BC25"/>
</svg>
