<svg width="61" height="69" viewBox="0 0 61 69" fill="none" xmlns="http://www.w3.org/2000/svg">
<ellipse cx="34.9634" cy="27.1725" rx="25.0484" ry="26.5749" fill="#FED53B"/>
<path fill-rule="evenodd" clip-rule="evenodd" d="M5.40693 68.2977H46.4975C49.4799 68.2977 51.9066 65.8495 51.9066 62.8405V21.3846C51.9066 18.3778 49.4799 15.9296 46.4975 15.9296H5.40693C2.42663 15.9296 0 18.3778 0 21.3846V62.8405C0 65.8495 2.42663 68.2977 5.40693 68.2977ZM2.1621 21.3846C2.1621 19.5801 3.61764 18.1116 5.40626 18.1116H46.4968C48.2854 18.1116 49.7431 19.5801 49.7431 21.3846V62.8405C49.7431 64.6451 48.2854 66.1157 46.4968 66.1157H5.40626C3.61764 66.1157 2.1621 64.6451 2.1621 62.8405V21.3846Z" fill="black"/>
<rect x="20.5464" y="27.9307" width="22.7091" height="2.18201" fill="black"/>
<rect x="8.65002" y="27.9307" width="6.48832" height="2.18201" fill="black"/>
<rect x="8.65002" y="41.0226" width="15.1394" height="2.18201" fill="black"/>
<rect x="29.1981" y="41.0226" width="14.058" height="2.18201" fill="black"/>
<path fill-rule="evenodd" clip-rule="evenodd" d="M12.9758 29.0216C12.9758 31.4284 14.9158 33.3856 17.3014 33.3856C19.6869 33.3856 21.6269 31.4284 21.6269 29.0216C21.6269 26.6149 19.6869 24.6576 17.3014 24.6576C14.9158 24.6576 12.9758 26.6149 12.9758 29.0216ZM15.1372 29.0217C15.1372 27.8194 16.1083 26.8396 17.3 26.8396C18.4917 26.8396 19.4628 27.8194 19.4628 29.0217C19.4628 30.2239 18.4917 31.2037 17.3 31.2037C16.1083 31.2037 15.1372 30.2239 15.1372 29.0217Z" fill="black"/>
<rect x="8.65002" y="54.1147" width="23.7905" height="2.18201" fill="black"/>
<rect x="37.8481" y="54.1147" width="5.40693" height="2.18201" fill="black"/>
<path fill-rule="evenodd" clip-rule="evenodd" d="M30.2791 55.2057C30.2791 57.6124 32.2192 59.5697 34.6047 59.5697C36.9902 59.5697 38.9302 57.6124 38.9302 55.2057C38.9302 52.7989 36.9902 50.8417 34.6047 50.8417C32.2192 50.8417 30.2791 52.7989 30.2791 55.2057ZM32.4411 55.2057C32.4411 54.0013 33.41 53.0237 34.6039 53.0237C35.7977 53.0237 36.7666 54.0013 36.7666 55.2057C36.7666 56.4102 35.7977 57.3877 34.6039 57.3877C33.41 57.3877 32.4411 56.4102 32.4411 55.2057Z" fill="black"/>
<path fill-rule="evenodd" clip-rule="evenodd" d="M21.6275 42.1136C21.6275 44.5204 23.5675 46.4777 25.953 46.4777C28.3386 46.4777 30.2786 44.5204 30.2786 42.1136C30.2786 39.7069 28.3386 37.7496 25.953 37.7496C23.5675 37.7496 21.6275 39.7069 21.6275 42.1136ZM23.7901 42.1137C23.7901 40.9114 24.7612 39.9317 25.9529 39.9317C27.1446 39.9317 28.1157 40.9114 28.1157 42.1137C28.1157 43.316 27.1446 44.2957 25.9529 44.2957C24.7612 44.2957 23.7901 43.316 23.7901 42.1137Z" fill="black"/>
</svg>
