<svg width="97" height="30" viewBox="0 0 97 30" fill="none" xmlns="http://www.w3.org/2000/svg">
<path d="M0 6.17719C0 5.11601 0.244487 4.16407 0.733462 3.32137C1.23284 2.47866 1.90388 1.82323 2.74658 1.35506C3.59969 0.876493 4.53082 0.637207 5.53998 0.637207C6.69479 0.637207 7.71956 0.923309 8.61428 1.49551C9.5194 2.05731 10.1748 2.8584 10.5806 3.89877H8.44261C8.16171 3.32657 7.77157 2.90002 7.2722 2.61911C6.77282 2.33821 6.19541 2.19776 5.53998 2.19776C4.82212 2.19776 4.18229 2.35902 3.62049 2.68154C3.05869 3.00405 2.61653 3.46702 2.29402 4.07043C1.98191 4.67385 1.82585 5.3761 1.82585 6.17719C1.82585 6.97827 1.98191 7.68052 2.29402 8.28394C2.61653 8.88735 3.05869 9.35552 3.62049 9.68844C4.18229 10.011 4.82212 10.1722 5.53998 10.1722C6.19541 10.1722 6.77282 10.0318 7.2722 9.75086C7.77157 9.46996 8.16171 9.04341 8.44261 8.47121H10.5806C10.1748 9.51158 9.5194 10.3127 8.61428 10.8745C7.71956 11.4363 6.69479 11.7172 5.53998 11.7172C4.52041 11.7172 3.58928 11.4831 2.74658 11.0149C1.90388 10.5363 1.23284 9.87571 0.733462 9.033C0.244487 8.1903 0 7.23836 0 6.17719Z" fill="white"/>
<path d="M20.4501 3.02486V11.6235H18.6711V10.6092C18.3902 10.9629 18.0209 11.2438 17.5631 11.4519C17.1157 11.6495 16.6372 11.7484 16.1274 11.7484C15.4511 11.7484 14.8425 11.6079 14.3015 11.327C13.7709 11.0461 13.3496 10.63 13.0375 10.0786C12.7358 9.52718 12.5849 8.86134 12.5849 8.08107V3.02486H14.3483V7.81577C14.3483 8.58565 14.5408 9.17866 14.9258 9.59481C15.3107 10.0006 15.8361 10.2034 16.5019 10.2034C17.1678 10.2034 17.6931 10.0006 18.0781 9.59481C18.4734 9.17866 18.6711 8.58565 18.6711 7.81577V3.02486H20.4501Z" fill="white"/>
<path d="M25.9185 11.764C25.2423 11.764 24.6337 11.6443 24.0927 11.4051C23.5621 11.1554 23.1407 10.8224 22.8286 10.4063C22.5165 9.97974 22.3501 9.50638 22.3293 8.98619H24.1707C24.2019 9.35032 24.3736 9.65723 24.6857 9.90692C25.0082 10.1462 25.4088 10.2658 25.8873 10.2658C26.3867 10.2658 26.7716 10.1722 27.0421 9.98495C27.323 9.78728 27.4635 9.53759 27.4635 9.23588C27.4635 8.91336 27.3074 8.67408 26.9953 8.51802C26.6936 8.36197 26.2098 8.1903 25.544 8.00304C24.899 7.82617 24.3736 7.65451 23.9678 7.48805C23.5621 7.32159 23.2084 7.0667 22.9067 6.72338C22.6154 6.38006 22.4697 5.9275 22.4697 5.3657C22.4697 4.90793 22.605 4.49178 22.8755 4.11725C23.1459 3.73231 23.5309 3.43061 24.0303 3.21213C24.54 2.99365 25.1227 2.88441 25.7781 2.88441C26.756 2.88441 27.5415 3.1341 28.1345 3.63348C28.7379 4.12245 29.0605 4.79349 29.1021 5.6466H27.323C27.2918 5.26166 27.1358 4.95475 26.8549 4.72587C26.574 4.49699 26.1942 4.38254 25.7157 4.38254C25.2475 4.38254 24.8886 4.47098 24.6389 4.64784C24.3892 4.8247 24.2643 5.05879 24.2643 5.35009C24.2643 5.57897 24.3476 5.77144 24.514 5.9275C24.6805 6.08355 24.8834 6.2084 25.1227 6.30203C25.3619 6.38526 25.7157 6.4945 26.1838 6.62975C26.8081 6.79621 27.3178 6.96787 27.7132 7.14473C28.1189 7.31119 28.4674 7.56088 28.7588 7.8938C29.0501 8.22672 29.2009 8.66888 29.2113 9.22027C29.2113 9.70925 29.0761 10.1462 28.8056 10.5311C28.5351 10.9161 28.1501 11.2178 27.6508 11.4363C27.1618 11.6547 26.5844 11.764 25.9185 11.764Z" fill="white"/>
<path d="M33.2091 4.47618V9.23588C33.2091 9.55839 33.282 9.79248 33.4276 9.93813C33.5837 10.0734 33.8438 10.141 34.2079 10.141H35.3003V11.6235H33.8958C33.0947 11.6235 32.4809 11.4363 32.0543 11.0617C31.6278 10.6872 31.4145 10.0786 31.4145 9.23588V4.47618H30.4001V3.02486H31.4145V0.886897H33.2091V3.02486H35.3003V4.47618H33.2091Z" fill="white"/>
<path d="M40.6697 11.764C39.8582 11.764 39.1248 11.5819 38.4693 11.2178C37.8139 10.8433 37.2989 10.3231 36.9244 9.65723C36.5498 8.98099 36.3626 8.20071 36.3626 7.31639C36.3626 6.44248 36.555 5.6674 36.94 4.99116C37.3249 4.31492 37.8503 3.79473 38.5161 3.4306C39.182 3.06647 39.9258 2.88441 40.7477 2.88441C41.5696 2.88441 42.3135 3.06647 42.9793 3.4306C43.6452 3.79473 44.1706 4.31492 44.5555 4.99116C44.9404 5.6674 45.1329 6.44248 45.1329 7.31639C45.1329 8.1903 44.9352 8.96538 44.5399 9.64162C44.1445 10.3179 43.6035 10.8433 42.9169 11.2178C42.2407 11.5819 41.4916 11.764 40.6697 11.764ZM40.6697 10.219C41.1275 10.219 41.554 10.1098 41.9494 9.89131C42.3551 9.67283 42.6828 9.34512 42.9325 8.90816C43.1822 8.47121 43.307 7.94062 43.307 7.31639C43.307 6.69217 43.1874 6.16678 42.9481 5.74023C42.7088 5.30327 42.3915 4.97556 41.9962 4.75708C41.6008 4.5386 41.1743 4.42936 40.7165 4.42936C40.2588 4.42936 39.8322 4.5386 39.4369 4.75708C39.0519 4.97556 38.745 5.30327 38.5161 5.74023C38.2873 6.16678 38.1728 6.69217 38.1728 7.31639C38.1728 8.24232 38.4069 8.96018 38.8751 9.46996C39.3536 9.96934 39.9518 10.219 40.6697 10.219Z" fill="white"/>
<path d="M57.3005 2.88441C57.9767 2.88441 58.5801 3.02486 59.1107 3.30576C59.6517 3.58666 60.0731 4.00281 60.3748 4.55421C60.6869 5.1056 60.843 5.77144 60.843 6.55172V11.6235H59.0795V6.81701C59.0795 6.04714 58.8871 5.45933 58.5021 5.05358C58.1172 4.63744 57.5918 4.42936 56.926 4.42936C56.2601 4.42936 55.7295 4.63744 55.3342 5.05358C54.9492 5.45933 54.7568 6.04714 54.7568 6.81701V11.6235H52.9934V6.81701C52.9934 6.04714 52.8009 5.45933 52.4159 5.05358C52.031 4.63744 51.5056 4.42936 50.8398 4.42936C50.1739 4.42936 49.6434 4.63744 49.248 5.05358C48.8631 5.45933 48.6706 6.04714 48.6706 6.81701V11.6235H46.8916V3.02486H48.6706V4.00801C48.9619 3.65428 49.3312 3.37859 49.7786 3.18092C50.226 2.98325 50.7045 2.88441 51.2143 2.88441C51.901 2.88441 52.5148 3.03006 53.0558 3.32137C53.5968 3.61267 54.0129 4.03402 54.3042 4.58542C54.5643 4.06523 54.9701 3.65428 55.5215 3.35258C56.0729 3.04047 56.6659 2.88441 57.3005 2.88441Z" fill="white"/>
<path d="M16.518 25.2794C15.7898 25.2794 15.1344 25.1546 14.5517 24.9049C13.9691 24.6448 13.5114 24.2806 13.1785 23.8125C12.8455 23.3443 12.6791 22.7981 12.6791 22.1739H14.583C14.6246 22.6421 14.8066 23.027 15.1292 23.3287C15.4621 23.6304 15.925 23.7813 16.518 23.7813C17.1319 23.7813 17.6104 23.6356 17.9538 23.3443C18.2971 23.0426 18.4687 22.6577 18.4687 22.1895C18.4687 21.8254 18.3595 21.5289 18.141 21.3C17.933 21.0711 17.6677 20.8942 17.3451 20.7694C17.033 20.6445 16.5961 20.5093 16.0343 20.3636C15.3268 20.1764 14.7494 19.9891 14.3021 19.8018C13.8651 19.6042 13.4906 19.3025 13.1785 18.8967C12.8663 18.491 12.7103 17.95 12.7103 17.2737C12.7103 16.6495 12.8663 16.1033 13.1785 15.6352C13.4906 15.167 13.9275 14.8081 14.4893 14.5584C15.0511 14.3087 15.7014 14.1838 16.44 14.1838C17.4908 14.1838 18.3491 14.4491 19.0149 14.9797C19.6912 15.4999 20.0657 16.2178 20.1385 17.1333H18.1722C18.141 16.738 17.9538 16.3998 17.6104 16.1189C17.2671 15.838 16.8146 15.6976 16.2528 15.6976C15.743 15.6976 15.3268 15.8276 15.0043 16.0877C14.6818 16.3478 14.5205 16.7223 14.5205 17.2113C14.5205 17.5442 14.6194 17.8199 14.817 18.0384C15.0251 18.2465 15.2852 18.4129 15.5973 18.5378C15.9094 18.6626 16.336 18.7979 16.877 18.9435C17.5948 19.1412 18.1774 19.3389 18.6248 19.5366C19.0826 19.7342 19.4675 20.0411 19.7796 20.4573C20.1021 20.863 20.2634 21.4092 20.2634 22.0959C20.2634 22.6473 20.1125 23.1674 19.8108 23.6564C19.5195 24.1454 19.0878 24.5407 18.5156 24.8424C17.9538 25.1337 17.2879 25.2794 16.518 25.2794Z" fill="white"/>
<path d="M24.1416 17.8355C24.4433 17.4402 24.8543 17.1073 25.3745 16.8368C25.8946 16.5663 26.4824 16.431 27.1379 16.431C27.8869 16.431 28.5684 16.6183 29.1822 16.9928C29.8064 17.357 30.2954 17.872 30.6491 18.5378C31.0029 19.2036 31.1797 19.9683 31.1797 20.8318C31.1797 21.6953 31.0029 22.4704 30.6491 23.157C30.2954 23.8333 29.8064 24.3639 29.1822 24.7488C28.5684 25.1233 27.8869 25.3106 27.1379 25.3106C26.4824 25.3106 25.8998 25.1806 25.3901 24.9205C24.8803 24.65 24.4641 24.3171 24.1416 23.9217V29.2588H22.3626V16.5715H24.1416V17.8355ZM29.3695 20.8318C29.3695 20.2388 29.2446 19.729 28.9949 19.3025C28.7557 18.8655 28.4331 18.5378 28.0274 18.3193C27.6321 18.0904 27.2055 17.976 26.7477 17.976C26.3004 17.976 25.8738 18.0904 25.4681 18.3193C25.0727 18.5482 24.7502 18.8811 24.5005 19.3181C24.2613 19.755 24.1416 20.27 24.1416 20.863C24.1416 21.456 24.2613 21.9762 24.5005 22.4236C24.7502 22.8605 25.0727 23.1935 25.4681 23.4223C25.8738 23.6512 26.3004 23.7657 26.7477 23.7657C27.2055 23.7657 27.6321 23.6512 28.0274 23.4223C28.4331 23.1831 28.7557 22.8397 28.9949 22.3924C29.2446 21.945 29.3695 21.4248 29.3695 20.8318Z" fill="white"/>
<path d="M32.346 20.8318C32.346 19.9683 32.5229 19.2036 32.8766 18.5378C33.2407 17.872 33.7297 17.357 34.3435 16.9928C34.9677 16.6183 35.6544 16.431 36.4034 16.431C37.0797 16.431 37.6675 16.5663 38.1669 16.8368C38.6767 17.0969 39.0824 17.4246 39.3841 17.8199V16.5715H41.1788V25.1702H39.3841V23.8905C39.0824 24.2963 38.6715 24.6344 38.1513 24.9049C37.6311 25.1754 37.0381 25.3106 36.3722 25.3106C35.6336 25.3106 34.9573 25.1233 34.3435 24.7488C33.7297 24.3639 33.2407 23.8333 32.8766 23.157C32.5229 22.4704 32.346 21.6953 32.346 20.8318ZM39.3841 20.863C39.3841 20.27 39.2593 19.755 39.0096 19.3181C38.7703 18.8811 38.453 18.5482 38.0576 18.3193C37.6623 18.0904 37.2357 17.976 36.778 17.976C36.3202 17.976 35.8937 18.0904 35.4983 18.3193C35.103 18.5378 34.7805 18.8655 34.5308 19.3025C34.2915 19.729 34.1719 20.2388 34.1719 20.8318C34.1719 21.4248 34.2915 21.945 34.5308 22.3924C34.7805 22.8397 35.103 23.1831 35.4983 23.4223C35.9041 23.6512 36.3306 23.7657 36.778 23.7657C37.2357 23.7657 37.6623 23.6512 38.0576 23.4223C38.453 23.1935 38.7703 22.8605 39.0096 22.4236C39.2593 21.9762 39.3841 21.456 39.3841 20.863Z" fill="white"/>
<path d="M42.9224 20.863C42.9224 19.9787 43.0993 19.2036 43.453 18.5378C43.8172 17.8616 44.3165 17.3414 44.9512 16.9772C45.5858 16.6131 46.314 16.431 47.1359 16.431C48.1763 16.431 49.0346 16.6807 49.7109 17.1801C50.3975 17.6691 50.8605 18.3713 51.0998 19.2869H49.1803C49.0242 18.8603 48.7745 18.5274 48.4312 18.2881C48.0879 18.0488 47.6561 17.9292 47.1359 17.9292C46.4077 17.9292 45.8251 18.1893 45.3881 18.7095C44.9616 19.2192 44.7483 19.9371 44.7483 20.863C44.7483 21.789 44.9616 22.512 45.3881 23.0322C45.8251 23.5524 46.4077 23.8125 47.1359 23.8125C48.1659 23.8125 48.8473 23.3599 49.1803 22.4548H51.0998C50.8501 23.3287 50.3819 24.0258 49.6953 24.5459C49.0086 25.0557 48.1555 25.3106 47.1359 25.3106C46.314 25.3106 45.5858 25.1285 44.9512 24.7644C44.3165 24.3899 43.8172 23.8697 43.453 23.2039C43.0993 22.5276 42.9224 21.7473 42.9224 20.863Z" fill="white"/>
<path d="M60.7535 20.6602C60.7535 20.9827 60.7327 21.274 60.6911 21.5341H54.1211C54.1732 22.2207 54.428 22.7721 54.8858 23.1883C55.3436 23.6044 55.9054 23.8125 56.5712 23.8125C57.5284 23.8125 58.2046 23.4119 58.5999 22.6108H60.5194C60.2593 23.4015 59.786 24.0518 59.0993 24.5615C58.4231 25.0609 57.5804 25.3106 56.5712 25.3106C55.7493 25.3106 55.0107 25.1285 54.3552 24.7644C53.7102 24.3899 53.2004 23.8697 52.8259 23.2039C52.4617 22.5276 52.2797 21.7473 52.2797 20.863C52.2797 19.9787 52.4565 19.2036 52.8103 18.5378C53.1744 17.8616 53.679 17.3414 54.324 16.9772C54.9794 16.6131 55.7285 16.431 56.5712 16.431C57.3827 16.431 58.1058 16.6079 58.7404 16.9616C59.375 17.3154 59.8692 17.8147 60.2229 18.4598C60.5766 19.0944 60.7535 19.8279 60.7535 20.6602ZM58.8964 20.0984C58.886 19.4429 58.652 18.9175 58.1942 18.5222C57.7364 18.1268 57.1694 17.9292 56.4932 17.9292C55.8794 17.9292 55.354 18.1268 54.917 18.5222C54.4801 18.9071 54.22 19.4325 54.1367 20.0984H58.8964Z" fill="white"/>
<path fill-rule="evenodd" clip-rule="evenodd" d="M85.7223 4.53853H72.826C71.0304 4.53853 69.5749 5.99413 69.5749 7.7897V20.686C69.5749 22.4815 71.0304 23.9371 72.826 23.9371H85.7223C87.5178 23.9371 88.9734 22.4815 88.9734 20.686V7.7897C88.9734 5.99413 87.5178 4.53853 85.7223 4.53853ZM72.826 2.37109C69.8334 2.37109 67.4074 4.79709 67.4074 7.7897V20.686C67.4074 23.6786 69.8334 26.1046 72.826 26.1046H85.7223C88.7149 26.1046 91.1409 23.6786 91.1409 20.686V7.7897C91.1409 4.79708 88.7149 2.37109 85.7223 2.37109H72.826Z" fill="white"/>
<path fill-rule="evenodd" clip-rule="evenodd" d="M94.8252 26.1047L85.1801 26.1047V23.9373L94.8252 23.9373V26.1047Z" fill="white"/>
<path fill-rule="evenodd" clip-rule="evenodd" d="M79.2542 20.2527C82.5461 20.2527 85.2147 17.5841 85.2147 14.2922C85.2147 11.0003 82.5461 8.33175 79.2542 8.33175C75.9624 8.33175 73.2938 11.0003 73.2938 14.2922C73.2938 17.5841 75.9624 20.2527 79.2542 20.2527ZM79.2542 22.4201C83.7432 22.4201 87.3821 18.7811 87.3821 14.2922C87.3821 9.80329 83.7432 6.16431 79.2542 6.16431C74.7653 6.16431 71.1263 9.80329 71.1263 14.2922C71.1263 18.7811 74.7653 22.4201 79.2542 22.4201Z" fill="white"/>
<path fill-rule="evenodd" clip-rule="evenodd" d="M96.2331 22.2033L96.2331 26.1047L94.0656 26.1047L94.0656 22.2033L96.2331 22.2033Z" fill="white"/>
</svg>
