<svg width="56" height="60" viewBox="0 0 56 60" fill="none" xmlns="http://www.w3.org/2000/svg">
<ellipse rx="23.2417" ry="26.9657" transform="matrix(-1 0 0 1 32.5883 33.0217)" fill="#FED53B"/>
<path fill-rule="evenodd" clip-rule="evenodd" d="M28.7219 33.7792C36.0515 36.5923 42.2919 39.6228 43.4258 46.6323C43.4658 46.8784 43.3589 47.1246 43.1524 47.262C41.2935 48.5 39.4111 49.5914 37.5572 50.5051C37.1233 50.7262 36.7002 50.9279 36.2796 51.1208C36.2714 51.125 36.2651 51.1317 36.2567 51.1356C35.9718 51.2665 35.6853 51.3973 35.4004 51.5183C35.0028 51.6986 34.5832 51.8649 34.1734 52.0229C32.3242 52.7517 30.4734 53.3108 28.6237 53.7199C26.2548 54.2442 23.888 54.5161 21.5292 54.5161C19.5775 54.5161 17.6316 54.3288 15.6935 53.9701C13.4547 53.5564 11.2261 52.9117 9.01303 52.0196L8.76078 51.9142C8.7063 51.8917 8.6519 51.8683 8.5976 51.845L8.59749 51.8449L8.59737 51.8449L8.59726 51.8448L8.59714 51.8448L8.59703 51.8447L8.59691 51.8447L8.59679 51.8446L8.59668 51.8446C8.55607 51.8271 8.51553 51.8097 8.47506 51.7927C8.42511 51.7717 8.3757 51.7515 8.32625 51.7313L8.32574 51.7311C8.24635 51.6986 8.16685 51.6661 8.08484 51.6303C7.96162 51.5762 7.8333 51.5171 7.70504 51.4581L7.70474 51.4579L7.70401 51.4576C7.64567 51.4307 7.58735 51.4039 7.52953 51.3775C7.48339 51.3563 7.43819 51.3365 7.3929 51.3166L7.39281 51.3165L7.39276 51.3165L7.39263 51.3164L7.39245 51.3164C7.33272 51.2901 7.27285 51.2638 7.21054 51.2343L7.20874 51.2333L7.2058 51.2312L7.20356 51.2295L7.20115 51.2281C6.79391 51.0382 6.3739 50.8374 5.92399 50.6137C4.07171 49.6836 2.18678 48.5543 0.320633 47.2546C0.120636 47.1155 0.0185855 46.8735 0.0577739 46.6323C0.62594 43.1217 2.71577 40.0244 5.79256 38.1362C8.58914 36.4376 11.7661 34.9299 14.7535 33.7801V31.6281C14.7191 31.597 14.6839 31.5673 14.6487 31.5375L14.6486 31.5375L14.6486 31.5374L14.6485 31.5374L14.6485 31.5374L14.6485 31.5373L14.6484 31.5373L14.6484 31.5373L14.6484 31.5372L14.6483 31.5372L14.6483 31.5372C14.5996 31.4961 14.551 31.4551 14.5045 31.4105C12.6351 29.6138 11.5138 27.2593 11.2812 24.6986C9.76486 24.595 8.55913 23.3317 8.55913 21.7768C8.55913 20.3572 9.56762 19.1715 10.9022 18.9024C8.9221 15.0113 8.79751 10.7254 10.6041 7.27766C12.6498 3.37528 16.9323 1.01624 22.6622 0.635137C23.2679 0.632667 23.8345 0.620319 24.3986 0.607971L24.4351 0.607217C26.9764 0.554746 29.6026 0.500523 31.6264 1.61052C31.8362 1.72576 31.9628 1.95128 31.953 2.19164C31.944 2.43198 31.7995 2.64599 31.5815 2.74394C31.4572 2.79915 31.3148 2.85888 31.1617 2.92316L31.1415 2.93161L31.14 2.93224C30.5525 3.17859 29.3503 3.6827 29.1554 4.15394C30.6158 3.71933 31.9864 3.6469 33.3236 3.92594C33.5971 3.98355 33.7995 4.21567 33.8216 4.49636C33.8428 4.77622 33.6779 5.03715 33.4175 5.13674C32.6942 5.41083 32.1554 5.81827 31.6681 6.33766C32.9122 6.78955 33.7914 7.47273 34.3399 8.41272C35.1114 9.733 35.1743 11.5002 34.5342 13.8148C34.304 15.3847 33.6593 17.0728 32.5813 18.9032C33.912 19.1754 34.9163 20.3599 34.9163 21.7768C34.9163 23.3416 33.6954 24.6127 32.1652 24.7016C31.8603 27.431 30.5973 29.8533 28.7219 31.5851V33.7792ZM35.1996 50.2202L35.1997 50.2202L35.265 50.1907L35.3173 50.1673L35.3708 50.1435V49.1642C35.3708 48.439 34.8598 47.8028 34.0982 47.5789C32.5337 47.1259 31.3276 45.9175 30.867 44.346L30.8643 44.3397C30.862 44.3346 30.8593 44.3298 30.8566 44.325C30.8519 44.3163 30.8471 44.3077 30.8442 44.298C30.7888 44.1075 30.7089 43.9342 30.6098 43.7806L30.6077 43.7775L30.6042 43.7731L30.6013 43.7696L30.5983 43.7654C30.2993 43.313 29.8051 43.0328 29.2818 43.0328H14.9673H14.1901C13.5224 43.0328 12.857 43.5131 12.6284 44.298C12.6276 44.3006 12.6263 44.303 12.625 44.3054L12.6228 44.3094L12.6215 44.3127C12.621 44.3144 12.6204 44.316 12.6197 44.3176L12.6186 44.3202L12.6178 44.3226C12.1672 45.8816 10.9256 47.1286 9.37697 47.5797C8.61696 47.8028 8.10593 48.4423 8.10593 49.1724V50.2526L8.20499 50.2979L8.20564 50.2982L8.20601 50.2984C8.26592 50.3259 8.32588 50.3534 8.3842 50.3793C8.40715 50.3893 8.43005 50.3994 8.45297 50.4096L8.45321 50.4097L8.45341 50.4098C8.49361 50.4276 8.53385 50.4455 8.57451 50.4623C8.69241 50.5151 8.80083 50.5604 8.90919 50.6057L8.99023 50.6396L9.10232 50.6869L9.12604 50.697L9.1283 50.6979L9.12859 50.698C9.24384 50.7469 9.35929 50.7959 9.4733 50.8409C12.1491 51.9208 14.8483 52.6285 17.5619 52.9819C21.8084 53.5334 26.0923 53.1994 30.3802 51.9738C30.4252 51.9609 30.4701 51.9491 30.5151 51.9374L30.5153 51.9373C30.5681 51.9236 30.6208 51.9098 30.6735 51.8942L30.6802 51.8921C31.6957 51.5916 32.7114 51.2413 33.7267 50.8409C34.1137 50.6911 34.5129 50.5265 34.8957 50.3544C34.9972 50.3116 35.0981 50.2661 35.1989 50.2206L35.199 50.2205L35.1991 50.2205L35.1992 50.2204L35.1993 50.2204L35.1994 50.2203L35.1995 50.2203L35.1996 50.2202ZM12.0413 36.2858L12.0429 36.2851C12.083 36.2668 12.123 36.2486 12.1618 36.2312L14.0828 41.7703C13.4349 41.7953 12.6912 42.0996 12.1742 42.6337L10.268 37.1271C10.8701 36.8328 11.4425 36.5627 11.9791 36.3141L12.0413 36.2858ZM28.6581 35.1106C28.219 38.5518 25.2879 41.222 21.7416 41.222C18.1901 41.222 15.2559 38.552 14.8161 35.111C14.431 35.2631 13.9198 35.4703 13.3158 35.727L15.4108 41.7686H28.0592L30.1545 35.7262C29.552 35.469 29.042 35.262 28.6581 35.1106ZM31.2961 42.6337C31.2871 42.6244 31.2772 42.6165 31.2672 42.6086C31.2583 42.6016 31.2494 42.5945 31.2412 42.5864C30.7509 42.1059 30.1557 41.844 29.5256 41.7891C29.5051 41.7873 29.4851 41.7837 29.465 41.7802C29.4398 41.7757 29.4145 41.7712 29.3883 41.7702L31.3099 36.229C31.8928 36.4982 32.5312 36.7986 33.203 37.1279L31.2961 42.6337ZM32.2439 23.4293C33.0451 23.3089 33.6631 22.6175 33.6631 21.7768C33.6631 20.9407 33.0452 20.2531 32.2443 20.1332V23.4222C32.2443 23.4246 32.2439 23.4269 32.2439 23.4293ZM11.7132 7.86867C13.5467 4.3688 17.4652 2.24763 22.7044 1.89782C23.2775 1.89699 23.853 1.88464 24.4253 1.8723L24.4476 1.87182C25.0155 1.85964 25.5761 1.84761 26.1233 1.84761C27.4057 1.84761 28.6172 1.91346 29.6858 2.19743C28.9004 2.58512 28.1453 3.09874 27.9339 3.85189C27.8392 4.18854 27.8172 4.71616 28.2482 5.3195C28.4106 5.54832 28.7029 5.64134 28.9674 5.54503C29.738 5.26846 30.4743 5.1022 31.187 5.04622C30.756 5.43308 30.4001 5.85864 30.0743 6.28254C29.9445 6.45293 29.9086 6.67764 29.9797 6.88012C30.0507 7.08178 30.218 7.23405 30.4254 7.28426C31.8352 7.62338 32.7617 8.20285 33.2597 9.05396C33.8483 10.0631 33.8703 11.5093 33.3103 13.5514C33.0926 15.0091 32.5081 16.5408 31.5313 18.2103C31.4929 18.1489 31.4542 18.0876 31.4166 18.0262C29.9775 15.6728 29.1659 13.3514 28.8531 10.9845C28.8501 10.9619 28.8464 10.9395 28.8426 10.9171L28.8426 10.9171C28.8384 10.8921 28.8342 10.8672 28.8311 10.842C28.7829 10.4528 28.7478 10.0605 28.7258 9.66471C28.7119 9.41448 28.5519 9.19553 28.3184 9.10746C28.0849 9.02021 27.8229 9.07948 27.649 9.26056C25.3771 11.6262 20.6644 12.409 12.8145 11.7233C12.6039 11.7077 12.3949 11.7966 12.2643 11.967C12.1337 12.1373 12.0986 12.3629 12.1704 12.5654L12.1711 12.5676L12.1712 12.5686C12.1757 12.5814 12.1793 12.5934 12.183 12.6054L12.183 12.6054C12.1864 12.6166 12.1898 12.6279 12.1939 12.6396C12.3092 12.9697 12.4106 13.2885 12.4962 13.5946C12.5194 13.6778 12.5377 13.757 12.5559 13.8361L12.5559 13.8362L12.5559 13.8362C12.5664 13.8815 12.5768 13.9268 12.5882 13.9728C12.9599 15.482 13.0847 17.2216 12.0476 18.3839C10.2254 14.8451 10.0896 10.9644 11.7132 7.86867ZM11.231 20.1332C10.4301 20.2531 9.81216 20.9407 9.81216 21.7768C9.81216 22.6174 10.4301 23.3087 11.231 23.4293V20.1332ZM12.4855 23.7004V19.7215C12.5371 19.6796 12.5821 19.6332 12.6271 19.5867C12.6555 19.5573 12.6839 19.528 12.7141 19.4998C14.4491 17.8707 14.3175 15.3565 13.6496 13.0626C20.5316 13.5777 24.9323 12.9291 27.5829 10.985C27.9808 14.1936 29.1914 17.0631 30.9895 19.6943V23.4222C30.9895 28.5082 27.0416 32.8271 22.1877 33.051C19.6399 33.1769 17.2162 32.2682 15.3696 30.4944C13.51 28.7082 12.4855 26.2949 12.4855 23.7004ZM22.2479 34.3136C22.0724 34.3227 21.8977 34.3268 21.723 34.3268C19.6656 34.3268 17.7 33.7287 16.0087 32.6095V34.2182C16.0087 37.383 18.5809 39.9577 21.7434 39.9577C24.901 39.9577 27.4692 37.383 27.4692 34.2182V32.5692C25.957 33.5896 24.1778 34.2246 22.2479 34.3136ZM1.36728 46.4447C1.96321 43.4601 3.79753 40.8417 6.44247 39.2177C7.17391 38.7741 7.90943 38.3543 8.63026 37.9691C8.8021 37.8766 8.97139 37.7879 9.14057 37.6993L11.3617 44.1152C10.997 45.1912 10.1197 46.0475 9.02781 46.3656C7.72657 46.7467 6.85227 47.8752 6.85227 49.1725V49.6601C6.80047 49.6347 6.75021 49.6106 6.69994 49.5865L6.69954 49.5863C6.62841 49.5522 6.55725 49.518 6.48165 49.4803C4.79428 48.6341 3.07507 47.6135 1.36728 46.4447ZM36.777 49.4822C36.8504 49.447 36.9239 49.4116 36.9993 49.3733C38.6964 48.5362 40.414 47.5501 42.1153 46.4356C41.5169 43.4576 39.6818 40.8434 37.0311 39.2161C36.1634 38.6841 35.246 38.1714 34.3334 37.6933L32.1121 44.1101C32.4755 45.2042 33.3353 46.0435 34.4458 46.3648C35.7495 46.7467 36.6238 47.8719 36.6238 49.1642V49.5565C36.6752 49.5311 36.7261 49.5067 36.777 49.4822Z" fill="black"/>
<path d="M16.2183 21.6884H17.9699C18.3418 21.6884 18.6435 21.3383 18.6435 20.9067C18.6435 20.4752 18.3418 20.1251 17.9699 20.1251H16.2183C15.8464 20.1251 15.5446 20.4752 15.5446 20.9067C15.5446 21.3383 15.8464 21.6884 16.2183 21.6884Z" fill="black"/>
<path d="M25.5147 21.6884H27.2663C27.6382 21.6884 27.9399 21.3383 27.9399 20.9067C27.9399 20.4752 27.6382 20.1251 27.2663 20.1251H25.5147C25.1428 20.1251 24.841 20.4752 24.841 20.9067C24.841 21.3383 25.1428 21.6884 25.5147 21.6884Z" fill="black"/>
<path d="M22.1297 26.378C22.7084 26.378 23.288 26.2208 23.7814 25.9065C24.0905 25.7109 24.1588 25.3337 23.9342 25.0642C23.7113 24.7946 23.279 24.7333 22.9708 24.9306C22.4675 25.2496 21.7918 25.2496 21.2885 24.9306C20.9812 24.7341 20.5489 24.7946 20.3252 25.0642C20.1005 25.3337 20.1688 25.7109 20.4779 25.9065C20.9713 26.2208 21.5509 26.378 22.1297 26.378Z" fill="black"/>
<path d="M17.9605 28.9158C18.4797 29.7735 19.3409 30.2861 20.264 30.2861L23.2191 30.2852C24.1422 30.2852 25.0034 29.7726 25.5226 28.9149C25.7076 28.6101 25.6066 28.2147 25.2978 28.033C24.9864 27.8495 24.5885 27.9501 24.4044 28.2549C24.1184 28.7273 23.6866 28.9987 23.2191 28.9987L20.264 28.9995C19.7965 28.9995 19.3646 28.7282 19.0787 28.2558C18.8955 27.9509 18.4967 27.8512 18.1853 28.0338C17.8765 28.2156 17.7755 28.6109 17.9605 28.9158Z" fill="black"/>
</svg>
