<svg width="22" height="16" viewBox="0 0 22 16" fill="none" xmlns="http://www.w3.org/2000/svg">
<path d="M1.99999 0C1.46956 0 0.960854 0.210714 0.585783 0.585786C0.210713 0.960859 0 1.46957 0 2V13H1.99999C1.99999 13.7956 2.31606 14.5587 2.87866 15.1213C3.44127 15.6839 4.20433 16 4.99997 16C5.79562 16 6.55868 15.6839 7.12128 15.1213C7.68389 14.5587 7.99996 13.7956 7.99996 13H13.9999C13.9999 13.7956 14.316 14.5587 14.8786 15.1213C15.4412 15.6839 16.2043 16 16.9999 16C17.7956 16 18.5586 15.6839 19.1212 15.1213C19.6838 14.5587 19.9999 13.7956 19.9999 13H21.9999V8L18.9999 4H15.9999V0H1.99999ZM8.99995 2L12.9999 6L8.99995 10V7H2.99998V5H8.99995V2ZM15.9999 5.5H18.4999L20.4699 8H15.9999V5.5ZM4.99997 11.5C5.39779 11.5 5.77932 11.658 6.06063 11.9393C6.34193 12.2206 6.49996 12.6022 6.49996 13C6.49996 13.3978 6.34193 13.7794 6.06063 14.0607C5.77932 14.342 5.39779 14.5 4.99997 14.5C4.60215 14.5 4.22062 14.342 3.93932 14.0607C3.65801 13.7794 3.49998 13.3978 3.49998 13C3.49998 12.6022 3.65801 12.2206 3.93932 11.9393C4.22062 11.658 4.60215 11.5 4.99997 11.5ZM16.9999 11.5C17.3977 11.5 17.7793 11.658 18.0606 11.9393C18.3419 12.2206 18.4999 12.6022 18.4999 13C18.4999 13.3978 18.3419 13.7794 18.0606 14.0607C17.7793 14.342 17.3977 14.5 16.9999 14.5C16.6021 14.5 16.2206 14.342 15.9393 14.0607C15.6579 13.7794 15.4999 13.3978 15.4999 13C15.4999 12.6022 15.6579 12.2206 15.9393 11.9393C16.2206 11.658 16.6021 11.5 16.9999 11.5Z" fill="white"/>
</svg>
